<?xml version="1.0" standalone="no"?>
<!DOCTYPE svg PUBLIC "-//W3C//DTD SVG 20010904//EN"
 "http://www.w3.org/TR/2001/REC-SVG-20010904/DTD/svg10.dtd">
<svg version="1.0" xmlns="http://www.w3.org/2000/svg"
 width="880.000000pt" height="879.000000pt" viewBox="0 0 880.000000 879.000000"
 preserveAspectRatio="xMidYMid meet">

<g transform="translate(0.000000,879.000000) scale(0.100000,-0.100000)"
fill="#000000" stroke="none">
<path d="M4345 7340 c-201 -18 -384 -55 -522 -106 -38 -14 -81 -30 -98 -36
-63 -24 -248 -121 -322 -170 -234 -154 -437 -356 -584 -583 -67 -102 -84 -134
-76 -141 4 -4 39 -1 78 6 60 11 74 18 93 44 243 337 439 513 743 665 169 84
328 137 509 167 150 26 472 24 626 -4 377 -68 750 -271 1004 -545 62 -67 69
-71 137 -89 73 -18 117 -23 117 -12 0 3 -31 42 -69 87 -262 311 -583 524 -966
640 -193 59 -486 92 -670 77z"/>
<path d="M4246 7148 c-12 -43 -42 -120 -62 -159 -21 -43 -27 -47 -66 -51 -24
-3 -50 -8 -60 -12 -11 -5 -18 -2 -23 13 -8 27 -40 36 -76 20 -60 -24 -80 -123
-35 -172 56 -60 118 -42 198 58 27 33 57 61 67 63 15 3 19 -6 24 -62 11 -119
67 -178 141 -150 24 9 20 37 -4 29 -52 -17 -80 26 -80 121 0 43 4 55 19 64 23
12 27 7 29 -34 4 -57 39 -72 80 -33 l24 22 -5 -30 c-21 -110 -15 -165 18 -165
11 0 15 12 15 49 0 80 10 112 31 106 23 -8 85 21 104 48 16 23 16 23 33 -16
16 -38 36 -29 39 17 2 35 49 133 59 123 3 -2 -3 -32 -12 -65 -14 -50 -15 -64
-4 -77 16 -19 34 -19 50 0 12 14 15 14 30 0 23 -20 43 -19 65 5 l18 20 19 -20
c26 -27 47 -15 81 48 15 27 27 52 27 56 0 14 -19 5 -24 -11 -4 -10 -15 -29
-26 -43 l-20 -25 4 52 c9 124 -79 125 -142 1 -15 -28 -33 -54 -41 -56 -10 -4
-12 0 -6 14 15 39 32 109 28 122 -6 17 -48 15 -63 -3 -22 -26 -28 -16 -16 25
7 29 7 46 0 58 -23 36 -34 14 -49 -91 -4 -28 -16 -58 -30 -75 l-24 -27 6 43
c4 32 1 47 -12 62 -23 25 -36 25 -68 0 -22 -17 -26 -18 -37 -5 -19 23 -30 18
-30 -15 0 -51 -45 -140 -72 -140 -4 0 -8 16 -8 36 0 25 11 54 35 90 37 55 46
108 20 117 -23 9 -54 -24 -73 -80 -19 -54 -38 -83 -54 -83 -6 0 -7 11 -4 24
16 63 24 160 16 182 -10 26 -48 34 -54 12z m153 -130 c-7 -13 -14 -18 -16 -11
-3 7 1 22 8 35 7 13 14 18 16 11 3 -7 -1 -22 -8 -35z m-171 -41 c-9 -46 -20
-58 -33 -37 -5 9 35 94 41 87 1 -1 -2 -24 -8 -50z m672 3 c0 -11 -4 -20 -10
-20 -5 0 -10 -7 -10 -15 0 -8 -13 -29 -30 -47 -27 -30 -29 -31 -30 -11 0 47
38 113 67 113 7 0 13 -9 13 -20z m-367 -45 c-1 -33 -8 -54 -21 -68 -42 -41
-55 8 -22 81 26 57 46 51 43 -13z m-521 -39 l-3 -37 42 31 c38 27 89 41 89 23
0 -3 -18 -30 -40 -59 -48 -64 -91 -90 -120 -74 -37 20 -39 103 -3 142 24 27
38 16 35 -26z"/>
<path d="M4927 6668 c-9 -5 -20 -27 -23 -49 l-7 -40 -61 6 c-33 4 -113 13
-176 21 -189 23 -259 19 -443 -26 -89 -21 -331 -80 -537 -130 -624 -151 -740
-179 -1120 -274 -201 -50 -374 -97 -385 -103 -20 -11 -20 -22 -20 -464 l0
-453 40 -9 c22 -5 41 -11 43 -12 1 -1 -5 -17 -14 -35 -30 -59 -3 -300 37 -336
18 -17 130 -44 614 -149 153 -33 1030 -225 1560 -341 277 -61 293 -64 620
-135 l230 -49 120 15 c66 9 221 29 345 45 124 17 290 39 370 49 80 11 183 25
230 31 113 15 130 19 130 29 0 4 -44 11 -97 15 -54 3 -111 10 -128 15 l-30 8
28 12 c16 6 55 36 86 66 50 48 66 57 117 66 32 6 66 15 74 20 11 7 6 8 -15 4
-177 -32 -334 -54 -628 -91 -152 -18 -386 -16 -423 4 -15 8 -25 28 -32 59 -17
77 -24 141 -15 145 4 3 60 1 123 -3 63 -5 193 -4 289 2 155 9 176 8 192 -7 14
-13 31 -15 92 -9 l74 7 -5 -31 c-6 -44 13 -63 57 -56 185 25 196 30 188 82 -6
36 -6 36 76 47 l38 5 -2 -43 c-3 -54 6 -69 38 -61 20 5 24 3 20 -9 -10 -26 10
-18 47 19 46 45 68 88 70 136 1 21 10 47 20 57 21 24 21 138 0 162 -11 13 -26
177 -25 268 0 12 1 30 1 40 1 76 -13 273 -20 296 -6 16 -10 42 -10 58 0 17
-16 66 -35 111 -27 63 -35 94 -35 142 0 66 -18 105 -49 105 -13 0 -25 16 -41
54 -22 55 -21 76 4 76 21 0 38 27 31 50 -11 34 -93 89 -167 111 -39 11 -111
25 -161 30 -51 6 -120 13 -155 17 l-63 7 -21 60 c-41 122 -134 211 -248 239
-36 9 -150 30 -255 46 -207 33 -345 57 -415 70 -78 15 -126 18 -143 8z m283
-62 c463 -73 559 -90 588 -103 64 -30 162 -168 162 -230 0 -28 -3 -28 -217
-11 -118 9 -162 8 -193 -1 -22 -6 -40 -15 -40 -19 0 -4 -41 -8 -90 -8 -101 -1
-92 -8 -104 81 -13 96 -125 252 -206 285 -32 13 -42 35 -12 26 9 -2 60 -11
112 -20z m-177 -19 c89 -32 158 -86 207 -160 44 -69 55 -109 16 -65 -53 59
-168 108 -257 108 -64 0 -69 5 -69 76 0 76 3 77 103 41z m-398 -46 c44 -6 109
-13 145 -16 106 -10 115 -13 127 -45 9 -24 17 -29 59 -35 94 -11 151 -24 192
-42 57 -24 53 -35 -5 -15 -38 12 -93 16 -251 16 -190 1 -205 0 -218 -18 -11
-16 -14 -84 -13 -380 0 -199 4 -449 8 -556 4 -107 4 -202 0 -211 -5 -9 -4 -53
1 -98 6 -51 6 -91 0 -107 -10 -24 -12 -25 -102 -22 l-93 3 -7 760 c-4 418 -5
766 -3 773 3 8 17 11 42 7 21 -2 74 -9 118 -14z m-215 -760 c0 -415 -1 -756
-3 -758 -4 -3 -271 15 -1002 67 -148 11 -340 24 -425 30 -85 6 -211 15 -280
20 -69 5 -210 14 -315 21 -104 6 -196 13 -202 15 -10 3 -13 97 -13 428 0 395
1 426 18 435 9 5 177 45 372 90 195 45 423 97 505 116 83 19 222 50 310 70 88
20 189 42 225 51 658 150 796 180 802 175 4 -4 8 -346 8 -760z m680 588 c35
-5 81 -19 101 -31 61 -34 91 -118 44 -118 -11 0 -15 6 -10 19 9 30 -5 51 -35
51 -37 0 -63 -26 -56 -55 5 -21 2 -23 -62 -29 -37 -3 -85 -11 -107 -17 -41
-12 -105 -67 -105 -92 0 -10 -15 -16 -46 -20 -54 -6 -67 -19 -60 -63 4 -27 1
-33 -18 -36 -45 -9 -46 -7 -46 197 0 193 0 194 23 198 46 9 315 6 377 -4z
m390 -157 c0 -4 -7 -18 -16 -30 -8 -12 -13 -31 -9 -41 5 -17 -1 -20 -47 -25
-138 -14 -463 -34 -471 -29 -5 3 4 16 19 29 60 50 95 61 229 74 148 14 277 27
288 29 4 0 7 -2 7 -7z m25 -122 c13 -13 42 -23 73 -27 44 -5 49 -8 36 -20 -8
-8 -14 -17 -14 -21 0 -4 25 -106 55 -227 64 -254 65 -255 157 -255 51 0 59 -2
56 -17 -3 -16 -17 -18 -118 -18 l-115 0 -8 50 c-5 28 -21 115 -37 195 -15 80
-34 176 -40 213 -7 38 -18 71 -25 73 -7 3 -66 -2 -131 -10 -66 -8 -164 -20
-219 -26 -55 -6 -133 -16 -173 -21 -106 -13 -102 -14 -102 31 0 46 -1 46 130
55 220 16 434 36 439 41 8 7 14 4 36 -16z m720 -46 c61 -4 119 -11 130 -16 13
-5 -1 -7 -40 -3 -33 3 -163 9 -289 15 -126 5 -232 13 -235 16 -6 7 222 0 434
-12z m-702 -54 c4 -17 2 -18 -15 -9 -13 7 -52 9 -112 4 -126 -9 -178 -22 -198
-48 -17 -22 -18 -22 -18 -1 0 29 19 44 60 45 19 0 71 6 115 13 126 21 162 20
168 -4z m967 -50 c123 -298 149 -364 152 -388 3 -25 0 -27 -41 -32 -65 -7 -64
-28 1 -32 l53 -3 3 -63 c2 -44 -1 -63 -10 -66 -7 -3 -202 -10 -433 -16 -250
-7 -425 -16 -432 -22 -7 -6 -13 -19 -13 -30 0 -19 5 -20 98 -14 53 3 225 10
382 16 157 6 313 12 347 14 46 3 66 0 74 -11 30 -35 -3 -40 -386 -52 -203 -6
-404 -14 -445 -17 -71 -6 -75 -7 -75 -30 0 -30 -41 -29 483 -4 303 15 418 18
426 10 19 -20 -19 -37 -86 -39 -35 -1 -155 -6 -268 -11 -113 -6 -285 -13 -382
-17 -172 -6 -177 -7 -175 -27 1 -14 -4 -21 -15 -21 -9 0 -20 -4 -24 -8 -4 -4
12 -7 36 -7 66 0 818 39 868 45 32 3 44 1 49 -11 3 -8 3 -17 1 -19 -7 -8 -90
-14 -378 -30 -282 -16 -575 -37 -579 -41 -2 -2 8 -4 22 -4 32 0 35 -18 5 -29
-42 -15 -1 -19 112 -11 63 5 198 14 300 20 102 7 258 18 348 24 127 9 165 9
173 0 7 -8 6 -14 -1 -19 -8 -5 -8 -11 -1 -19 6 -7 8 -16 4 -19 -12 -12 -23 -7
-23 9 0 15 -13 16 -122 10 -68 -4 -177 -11 -243 -16 -66 -5 -199 -15 -295 -21
-96 -7 -164 -15 -151 -19 34 -8 38 -28 7 -36 -30 -7 -49 3 -42 22 4 10 -3 14
-23 14 -24 0 -28 -3 -24 -20 4 -16 0 -20 -18 -21 -17 -1 -13 -3 11 -8 19 -4
82 -4 140 1 229 16 522 39 643 50 120 10 150 8 133 -9 -14 -15 -1004 -99
-1016 -87 -5 5 -12 143 -16 307 -4 163 -11 297 -16 297 -4 0 -8 -85 -8 -190
l0 -190 -370 0 c-251 0 -370 3 -370 10 0 8 113 10 352 9 215 0 354 3 356 9 4
13 -100 22 -275 22 l-154 0 3 58 3 57 210 5 c235 6 256 18 36 22 -105 2 -146
6 -149 16 -3 9 33 12 157 12 89 0 161 4 161 9 0 17 -45 21 -227 21 l-183 0 0
78 0 79 106 6 107 6 29 -31 c21 -23 34 -29 51 -24 12 3 33 6 45 6 17 0 27 8
35 29 l11 29 169 1 c93 1 173 3 177 6 4 2 118 5 253 5 142 1 249 5 252 11 4 5
-6 9 -21 9 -22 0 -25 2 -14 15 7 8 17 15 22 15 18 0 109 43 103 49 -4 3 -65 7
-137 8 -72 1 -137 4 -144 7 -11 4 -15 33 -28 211 -3 33 -2 65 2 71 7 11 248
33 261 24 8 -5 117 -264 123 -290 2 -10 -6 -16 -24 -18 -16 -2 -28 -8 -28 -13
0 -12 51 -12 70 1 12 8 13 14 1 47 -26 72 -143 348 -154 362 -9 10 -7 13 7 10
13 -3 28 -27 46 -69z m-1326 -7 c7 -46 1 -441 -7 -450 -4 -3 -52 -6 -109 -7
-92 -1 -103 1 -106 17 -3 16 -1 17 16 8 21 -11 157 0 170 14 4 4 7 97 7 208
l0 202 -74 -2 c-100 -3 -108 -11 -114 -121 -3 -48 -12 -138 -21 -201 -21 -157
-23 -154 112 -150 l107 4 3 -77 3 -78 -88 -1 c-48 -1 -114 -3 -145 -5 -32 -2
-60 1 -63 7 -9 14 25 622 36 633 4 5 54 15 111 21 162 20 154 21 162 -22z
m-414 -22 c0 -32 14 -41 62 -41 l30 0 -7 -162 c-11 -229 -14 -250 -45 -258
-14 -4 -40 -5 -57 -3 -29 5 -31 7 -37 65 -3 34 -6 141 -6 239 0 195 -5 177 53
188 4 0 7 -12 7 -28z m351 -23 c4 -111 -2 -322 -11 -338 -9 -16 -21 -20 -64
-20 -38 0 -56 4 -59 15 -9 21 10 326 20 336 8 7 44 14 91 18 12 0 22 -5 23
-11z m979 -122 c0 -61 3 -121 6 -133 5 -19 2 -23 -15 -23 -17 0 -21 6 -21 29
0 21 -8 36 -30 51 -18 13 -30 30 -30 44 0 13 -9 35 -20 49 -11 14 -20 39 -20
56 0 27 4 31 38 36 20 4 44 7 52 9 37 6 40 -4 40 -118z m-486 -131 c16 -80 21
-123 14 -130 -20 -20 -38 30 -42 116 -2 46 -7 109 -10 139 -9 81 8 24 38 -125z
m-290 -121 c49 3 87 2 91 -3 9 -16 -6 -19 -110 -22 l-100 -3 -3 29 c-4 30 -4
30 17 11 18 -17 31 -18 105 -12z m1004 9 c3 -10 -14 -13 -62 -13 -61 0 -84 8
-69 24 12 12 126 2 131 -11z m-338 -8 c-7 -8 -17 -12 -22 -9 -6 4 -5 10 3 15
22 14 33 10 19 -6z m-460 -10 c-7 -8 -28 -15 -46 -15 -24 0 -34 5 -34 15 0 11
12 15 46 15 40 0 45 -2 34 -15z m7 -41 c4 -13 -61 -29 -77 -19 -17 10 -11 23
13 28 34 7 60 3 64 -9z m-699 -108 l3 -46 -60 0 -61 0 0 44 c0 41 2 45 28 49
15 2 41 3 57 2 28 -2 30 -5 33 -49z m10 -93 c3 -10 -13 -13 -57 -13 -48 0 -61
3 -61 15 0 13 11 15 57 13 34 -2 58 -8 61 -15z m325 -8 c2 -12 -260 -19 -282
-8 -9 5 47 10 124 13 166 7 156 7 158 -5z m-383 -40 c-17 -20 -6 -43 22 -47
16 -2 24 -11 26 -30 3 -25 1 -26 -53 -30 -67 -4 -75 5 -75 76 l0 46 46 0 c40
0 45 -2 34 -15z m370 -55 l0 -61 -142 3 -143 3 -3 44 c-5 73 -9 71 148 71
l140 0 0 -60z m-305 -90 c4 -6 -17 -10 -54 -10 -34 0 -61 4 -61 10 0 6 24 10
54 10 30 0 58 -4 61 -10z m-8 -44 c1 -1 0 -12 -4 -24 -5 -21 -11 -23 -57 -20
-44 3 -51 6 -54 25 -3 17 3 22 25 26 23 3 83 -1 90 -7z m797 -18 c3 -13 7 -65
10 -115 2 -51 8 -98 12 -104 5 -8 26 -9 68 -5 68 7 178 18 436 41 96 8 191 17
210 19 19 3 73 7 120 11 47 3 100 8 118 11 19 3 32 1 32 -6 0 -5 -19 -10 -42
-10 -24 0 -106 -7 -183 -15 -366 -38 -435 -45 -445 -45 -5 0 -10 -15 -10 -32
l-1 -33 -14 32 c-12 28 -18 32 -42 27 -15 -3 -57 -8 -93 -12 l-65 -7 -1 -75 0
-75 -90 0 c-136 1 -237 7 -262 16 -15 6 -34 33 -56 83 -38 83 -55 96 -118 95
l-43 -1 32 -11 c18 -7 38 -18 45 -26 9 -9 3 -8 -19 3 -18 9 -49 16 -70 17 -21
0 -32 3 -25 6 33 13 1 21 -119 27 -72 4 -137 10 -145 13 -19 7 -20 156 -1 172
9 7 130 12 378 14 200 1 367 3 371 5 4 1 10 -8 12 -20z m-3207 -70 c-3 -8 -6
-5 -6 6 -1 11 2 17 5 13 3 -3 4 -12 1 -19z m173 -6 c0 -4 -5 -13 -11 -19 -9
-9 -8 -16 5 -28 9 -9 14 -21 11 -26 -10 -16 -25 -10 -25 10 0 11 -5 23 -10 26
-7 4 -7 13 0 26 11 19 30 26 30 11z m1294 -69 c-13 -43 -24 -99 -24 -125 0
-26 -3 -49 -7 -51 -5 -3 -33 -1 -63 4 -30 4 -109 15 -174 24 -66 8 -122 17
-124 20 -3 2 3 16 12 31 10 14 24 42 31 62 l14 37 0 -41 c1 -48 18 -67 58 -62
26 3 28 7 33 53 4 42 8 50 30 55 14 3 26 14 28 25 7 44 8 45 111 45 l99 0 -24
-77z m216 65 c0 -10 -20 -12 -74 -10 -70 3 -74 2 -95 -24 -24 -31 -25 -29 -10
15 l11 31 84 0 c61 0 84 -3 84 -12z m-1677 -101 c-3 -5 -9 -3 -14 4 -4 7 -5
17 -2 22 3 5 9 3 14 -4 4 -7 5 -17 2 -22z m558 0 c17 -29 1 -37 -72 -37 -60 0
-69 2 -69 18 0 30 17 38 76 37 42 0 58 -4 65 -18z m3703 -44 c1 -36 -3 -48
-14 -48 -16 0 -27 73 -15 103 11 28 29 -5 29 -55z m-4106 45 c15 -15 16 -41 0
-36 -13 5 -31 48 -20 48 5 0 13 -5 20 -12z m1718 -8 c19 0 18 -29 -1 -36 -18
-7 -45 13 -45 33 0 10 6 13 16 9 9 -3 22 -6 30 -6z m150 -10 c38 0 44 -3 44
-21 0 -21 -3 -21 -72 -15 -40 4 -77 11 -82 16 -16 16 6 32 36 26 17 -3 50 -6
74 -6z m134 -28 c0 -26 -6 -30 -35 -24 -38 7 -34 42 5 42 22 0 30 -5 30 -18z
m273 -9 l69 -6 -9 -36 c-4 -20 -8 -83 -7 -141 0 -83 5 -116 22 -160 l22 -55
-42 47 c-40 43 -48 47 -113 57 -163 26 -175 30 -175 57 0 13 3 24 8 24 4 0 50
-7 102 -15 118 -18 140 -18 140 -2 0 9 -32 17 -107 26 -155 18 -144 11 -141
89 3 77 -14 70 141 57 59 -5 87 -4 87 3 0 6 -30 13 -67 17 -141 13 -168 19
-171 39 -4 20 13 20 241 -1z m-538 -19 c11 -12 15 -31 13 -67 -4 -61 -23 -73
-31 -20 -4 21 -9 53 -13 71 -7 36 5 42 31 16z m183 -17 c7 -5 12 -32 12 -74
l0 -65 -32 6 c-18 4 -54 10 -80 13 l-48 6 0 62 c0 34 2 64 4 66 7 7 129 -5
144 -14z m90 -7 c15 0 17 -126 2 -135 -5 -3 -21 -3 -35 1 -24 6 -25 9 -25 76
0 68 1 70 23 64 12 -3 28 -6 35 -6z m1205 -37 c-5 -15 -17 -29 -26 -31 -24 -5
-23 53 1 67 24 14 36 -2 25 -36z m-1729 -19 c3 -9 6 -31 6 -51 0 -27 -4 -34
-17 -31 -28 5 -31 98 -4 98 5 0 12 -7 15 -16z m2626 -22 c0 -28 -24 -72 -40
-72 -5 0 -10 10 -12 23 -3 19 -8 22 -45 19 -71 -5 -48 32 28 47 68 13 69 13
69 -17z m-1541 -8 c-5 -15 -7 -29 -5 -31 8 -8 27 8 34 27 7 18 8 18 32 0 20
-15 23 -21 13 -31 -20 -20 -16 -41 5 -35 24 8 51 -42 30 -55 -23 -15 -36 -10
-42 16 -8 33 -44 65 -73 65 -34 0 -41 29 -14 52 30 24 32 23 20 -8z m797 -11
c-10 -10 -19 5 -10 18 6 11 8 11 12 0 2 -7 1 -15 -2 -18z m-1622 -51 c8 -25
-31 -112 -49 -112 -19 0 -19 4 1 60 9 25 18 51 20 58 5 18 22 15 28 -6z m151
-1 c21 -5 30 -13 30 -27 0 -17 -6 -19 -53 -16 -69 4 -102 17 -102 41 0 16 6
18 48 14 26 -3 61 -8 77 -12z m609 -5 c-6 -16 -24 -23 -24 -8 0 10 22 33 27
28 2 -2 1 -11 -3 -20z m1526 -7 c0 -18 -27 -39 -49 -39 -11 0 -16 52 -6 62 13
12 55 -5 55 -23z m-213 -5 c4 -10 0 -22 -10 -29 -18 -13 -186 -40 -194 -31 -3
3 -3 16 1 29 5 21 14 25 73 34 104 15 123 15 130 -3z m-1799 -18 c5 -26 -11
-38 -42 -30 -19 4 -26 13 -26 31 0 21 4 24 32 21 23 -2 34 -9 36 -22z m582 4
c0 -5 -7 -10 -16 -10 -8 0 -12 5 -9 10 3 6 10 10 16 10 5 0 9 -4 9 -10z m20
-50 c0 -5 -7 -10 -15 -10 -8 0 -15 5 -15 10 0 6 7 10 15 10 8 0 15 -4 15 -10z
m70 -56 c0 -31 -3 -35 -20 -29 -28 9 -39 -22 -14 -39 17 -13 17 -15 -1 -42
-18 -28 -18 -28 -28 -6 -11 24 -37 30 -37 9 0 -7 5 -18 12 -25 16 -16 4 -26
-18 -14 -21 12 -29 62 -9 62 19 0 62 55 70 90 5 21 13 30 26 30 15 0 19 -7 19
-36z m-159 -107 c-8 -8 -11 -7 -11 4 0 20 13 34 18 19 3 -7 -1 -17 -7 -23z
m884 3 c10 -11 16 -22 13 -25 -2 -2 -31 0 -64 5 -32 6 -79 10 -103 10 -55 0
-44 17 14 23 98 9 122 7 140 -13z m-781 -75 c-21 -16 -70 -20 -79 -6 -3 6 14
12 37 14 24 2 47 4 52 5 6 1 1 -5 -10 -13z"/>
<path d="M3175 6243 c-11 -2 -37 -9 -57 -14 l-38 -10 0 -133 0 -133 -105 -18
-105 -18 0 -75 0 -75 68 7 c37 4 84 9 105 13 l37 6 0 -312 0 -311 23 -5 c13
-4 48 -5 78 -3 l54 3 5 325 5 325 110 15 c61 9 116 19 123 23 14 10 17 153 3
162 -6 3 -43 -1 -83 -9 -40 -8 -93 -16 -118 -18 l-45 -3 0 45 c-3 236 0 227
-60 213z"/>
<path d="M4770 6350 c-31 -4 -35 -8 -35 -35 0 -28 3 -30 41 -33 46 -3 69 15
59 47 -7 24 -21 28 -65 21z"/>
<path d="M5287 4883 c-3 -5 5 -28 19 -51 23 -39 28 -42 68 -42 24 0 71 -3 105
-6 57 -6 61 -8 61 -33 l0 -26 13 25 c7 14 22 26 34 28 32 5 45 25 34 54 -18
48 -35 53 -186 56 -79 2 -145 0 -148 -5z"/>
<path d="M5543 4675 c0 -22 2 -30 4 -17 2 12 2 30 0 40 -3 9 -5 -1 -4 -23z"/>
<path d="M2680 4578 c0 -18 97 -196 155 -283 388 -583 1080 -922 1774 -867
414 33 758 169 1091 433 88 69 260 241 260 259 0 13 -16 12 -113 -4 -76 -12
-80 -15 -140 -73 -254 -245 -600 -413 -967 -468 -135 -20 -401 -21 -542 -1
-323 46 -643 187 -888 391 -196 163 -345 347 -465 573 l-28 52 -69 0 c-45 0
-68 -4 -68 -12z"/>
<path d="M5886 4526 c-27 -6 -51 -17 -54 -23 -4 -13 10 -18 21 -7 3 3 27 7 52
8 45 2 46 1 40 -24 -4 -14 -7 -26 -8 -26 -18 -13 -65 -30 -74 -27 -7 3 -13 16
-13 31 0 19 -3 23 -11 15 -6 -6 -9 -21 -7 -34 3 -22 7 -24 55 -23 29 1 64 5
78 8 24 6 26 10 23 58 -3 46 -5 51 -28 53 -14 1 -47 -3 -74 -9z"/>
<path d="M5445 4520 c-9 -15 6 -109 21 -121 7 -6 50 -11 96 -12 l83 -2 -1 58
c-1 32 -5 62 -10 66 -14 13 -182 23 -189 11z"/>
<path d="M4064 4126 c-23 -23 -35 -47 -40 -76 -6 -38 -9 -41 -32 -37 -43 8
-72 -31 -72 -96 0 -40 -6 -61 -21 -81 -22 -28 -17 -55 7 -35 11 9 16 6 23 -14
13 -34 58 -67 91 -67 84 0 183 146 191 280 4 79 0 98 -32 129 -40 41 -72 40
-115 -3z m102 -17 c29 -32 26 -156 -5 -227 -23 -51 -79 -112 -104 -112 -25 0
-48 25 -50 55 -2 27 1 30 31 35 l34 5 1 110 c2 119 14 155 53 155 11 0 29 -9
40 -21z m-146 -199 c0 -5 -4 -10 -10 -10 -5 0 -10 5 -10 10 0 6 5 10 10 10 6
0 10 -4 10 -10z"/>
<path d="M4299 4009 c-20 -20 -23 -20 -31 -5 -25 45 -49 -6 -52 -114 -1 -35 3
-45 17 -48 13 -3 17 3 17 29 0 33 43 119 60 119 13 0 13 -1 -6 -45 -19 -47
-21 -94 -4 -105 19 -11 33 -2 26 17 -7 16 51 133 65 133 12 0 12 -1 -7 -45
-21 -51 -15 -99 13 -103 13 -2 27 5 37 19 l15 23 21 -27 c26 -32 48 -34 84 -6
23 18 27 18 32 5 8 -21 43 -20 66 1 15 13 18 14 18 2 0 -8 -18 -32 -39 -53
-21 -21 -47 -55 -56 -77 -17 -36 -17 -40 -1 -64 9 -14 24 -25 32 -25 30 0 70
58 93 132 12 40 24 79 27 87 4 11 8 11 22 -3 24 -21 58 -20 71 2 10 16 12 16
25 -1 8 -10 23 -17 33 -15 17 3 83 90 83 109 0 16 -18 9 -24 -8 -4 -10 -15
-29 -26 -43 l-20 -25 4 55 c5 62 -11 90 -49 90 -23 0 -85 -55 -85 -75 0 -6 -7
-20 -15 -31 -14 -18 -15 -15 -13 30 2 40 -2 52 -21 67 -21 17 -25 17 -51 4
-16 -8 -42 -39 -59 -68 -35 -61 -65 -92 -80 -82 -20 11 -12 34 17 49 54 28 67
97 21 111 -30 10 -61 -16 -94 -80 -47 -89 -76 -98 -40 -12 29 71 7 120 -37 80
-19 -17 -20 -17 -29 0 -13 23 -35 21 -60 -4z m392 -71 c-30 -54 -46 -72 -59
-64 -14 8 12 72 41 104 34 36 45 10 18 -40z m152 -19 c-36 -50 -53 -61 -53
-34 0 20 27 74 48 98 15 17 17 17 28 2 11 -14 7 -25 -23 -66z m-273 59 c0 -14
-30 -48 -42 -48 -5 0 -2 14 7 30 16 30 35 40 35 18z m75 -217 c-19 -54 -34
-81 -45 -81 -18 0 -10 40 15 80 32 51 48 51 30 1z"/>
<path d="M4220 2838 c-85 -43 -113 -129 -70 -213 l20 -40 -39 -33 c-101 -84
-88 -232 26 -288 57 -28 174 -26 232 4 l43 23 22 -20 c19 -18 35 -21 101 -21
l78 0 -52 54 c-28 30 -51 57 -51 61 0 3 12 24 26 47 26 41 64 139 64 165 0 9
-16 13 -58 13 l-58 0 -18 -60 c-10 -33 -23 -63 -29 -67 -6 -3 -33 18 -60 47
-44 48 -47 54 -30 63 29 16 74 60 89 89 65 125 -97 246 -236 176z m130 -98
c13 -25 -9 -78 -41 -98 -18 -11 -23 -11 -35 5 -34 43 -29 108 9 122 26 10 52
-1 67 -29z m-43 -303 c61 -70 62 -72 40 -84 -12 -7 -39 -12 -60 -13 -47 0 -97
43 -97 85 0 33 27 85 43 84 6 0 40 -33 74 -72z"/>
<path d="M5075 2851 c-45 -12 -107 -46 -131 -73 -108 -117 -108 -344 -1 -456
130 -136 362 -92 437 81 31 70 38 185 16 260 -21 72 -69 135 -126 164 -49 25
-146 37 -195 24z m130 -70 c103 -46 151 -190 110 -329 -19 -63 -57 -109 -110
-133 -46 -21 -66 -23 -117 -9 -186 52 -196 411 -13 475 54 19 82 18 130 -4z"/>
<path d="M6883 2850 c-94 -19 -170 -76 -210 -158 -25 -50 -28 -68 -27 -147 1
-140 45 -220 152 -272 51 -25 67 -28 157 -28 55 1 119 7 143 13 l42 13 0 149
0 150 -100 0 -100 0 0 -30 c0 -29 1 -29 63 -32 l62 -3 3 -89 c3 -100 3 -101
-65 -111 -104 -15 -212 36 -251 118 -90 191 21 373 223 370 38 0 83 -6 99 -12
34 -14 34 -14 38 24 3 28 0 31 -42 42 -52 13 -127 14 -187 3z"/>
<path d="M1186 2568 c-48 -156 -89 -291 -92 -300 -5 -16 3 -18 65 -18 l70 0
15 53 c8 28 18 64 21 80 7 27 8 27 94 27 l87 0 23 -80 24 -80 73 0 73 0 -14
48 c-8 26 -50 160 -93 297 l-78 250 -90 3 -90 3 -88 -283z m204 64 c16 -56 30
-106 30 -112 0 -6 -26 -10 -63 -10 l-63 0 30 114 c17 63 32 113 33 112 2 -1
16 -48 33 -104z"/>
<path d="M1720 2550 l0 -300 190 0 190 0 0 55 0 55 -120 0 -120 0 0 245 0 245
-70 0 -70 0 0 -300z"/>
<path d="M2223 2843 l-43 -4 0 -295 0 -294 65 0 64 0 3 108 3 107 80 6 c150
11 221 79 213 203 -7 121 -74 168 -243 172 -55 1 -119 0 -142 -3z m234 -127
c59 -69 -2 -153 -103 -144 l-39 3 -3 79 c-3 93 1 99 72 93 39 -3 55 -11 73
-31z"/>
<path d="M2700 2550 l0 -300 70 0 70 0 0 125 0 125 110 0 110 0 0 -125 0 -125
70 0 70 0 0 300 0 300 -70 0 -70 0 0 -115 0 -115 -110 0 -110 0 0 115 0 115
-70 0 -70 0 0 -300z"/>
<path d="M3376 2568 c-48 -156 -89 -291 -92 -300 -5 -16 3 -18 65 -18 l70 0
15 53 c8 28 18 64 21 80 7 27 8 27 94 27 l87 0 23 -80 24 -80 73 0 73 0 -14
48 c-8 26 -50 160 -93 297 l-78 250 -90 3 -90 3 -88 -283z m204 64 c16 -56 30
-106 30 -112 0 -6 -26 -10 -63 -10 l-63 0 30 114 c17 63 32 113 33 112 2 -1
16 -48 33 -104z"/>
<path d="M5536 2838 c-3 -7 -12 -132 -21 -278 -9 -146 -18 -275 -21 -287 -4
-21 -1 -23 35 -23 l39 0 7 138 c5 75 11 191 14 257 l6 120 23 -75 c13 -41 51
-155 84 -252 l61 -178 31 0 c31 0 32 1 75 118 24 64 65 178 91 253 l47 136 13
-259 13 -258 39 0 40 0 -6 63 c-3 34 -10 141 -16 237 -6 96 -13 203 -16 238
l-6 62 -47 0 -48 0 -66 -177 c-36 -98 -74 -206 -84 -240 -10 -35 -20 -63 -23
-63 -3 0 -11 21 -18 48 -7 26 -42 134 -80 239 l-67 193 -48 0 c-29 0 -49 -5
-51 -12z"/>
<path d="M6240 2550 l0 -300 170 0 170 0 0 30 0 30 -130 0 -130 0 0 115 0 115
115 0 115 0 0 30 0 30 -115 0 -115 0 0 95 0 95 120 0 120 0 0 30 0 30 -160 0
-160 0 0 -300z"/>
<path d="M7406 2808 c-31 -84 -186 -542 -186 -550 0 -4 17 -8 38 -8 l38 0 30
93 30 92 109 0 108 0 31 -90 31 -90 42 -3 43 -3 -103 300 -102 301 -47 0 c-45
0 -47 -1 -62 -42z m144 -300 c0 -5 -39 -8 -86 -8 -66 0 -85 3 -82 13 2 8 21
70 43 139 l40 126 42 -132 c23 -72 43 -134 43 -138z"/>
<path d="M1915 2021 c-69 -17 -125 -62 -161 -131 -16 -29 -19 -57 -19 -165 0
-115 3 -135 22 -171 28 -53 91 -107 142 -122 56 -17 4877 -17 4933 0 56 17
123 79 145 136 14 36 18 74 18 162 0 100 -3 121 -23 163 -13 26 -40 61 -60 77
-78 64 101 60 -2551 59 -1329 -1 -2429 -4 -2446 -8z m305 -201 c0 -5 -16 -10
-35 -10 l-35 0 0 -105 c0 -87 -3 -105 -15 -105 -12 0 -15 18 -15 105 l0 105
-35 0 c-19 0 -35 5 -35 10 0 6 35 10 85 10 50 0 85 -4 85 -10z m203 -1 c43
-23 49 -57 16 -90 -18 -18 -19 -22 -6 -37 21 -24 34 -96 16 -90 -7 2 -17 20
-22 39 -12 45 -24 59 -53 59 -22 0 -24 -4 -24 -50 0 -38 -4 -50 -15 -50 -12 0
-15 19 -15 108 0 60 3 112 7 115 10 11 72 8 96 -4z m252 -6 c4 -10 22 -62 41
-116 28 -83 31 -98 16 -95 -9 2 -20 18 -26 36 -8 30 -12 32 -52 32 -40 0 -43
-2 -54 -35 -6 -19 -18 -35 -26 -35 -8 0 -14 2 -14 5 0 3 21 64 75 213 6 18 32
15 40 -5z m258 -75 l57 -92 0 92 c0 75 3 92 15 92 12 0 15 -20 15 -116 0 -105
-2 -115 -17 -112 -10 2 -43 43 -73 92 l-55 88 -3 -91 c-2 -72 -6 -91 -17 -91
-12 0 -15 21 -15 115 0 150 12 153 93 23z m317 77 c-3 -5 -13 -9 -23 -8 -27 4
-57 -15 -57 -37 0 -11 16 -27 42 -42 56 -31 67 -51 48 -85 -9 -15 -27 -32 -41
-37 -33 -11 -79 0 -79 19 0 11 6 12 29 4 55 -19 95 28 54 62 -10 8 -30 21 -46
29 -15 7 -30 25 -34 39 -8 34 37 73 81 69 17 -2 29 -7 26 -13z m245 -10 c45
-44 22 -100 -46 -111 -39 -6 -39 -7 -39 -50 0 -32 -4 -44 -15 -44 -12 0 -15
19 -15 108 0 60 3 112 7 115 3 4 24 7 45 7 28 0 46 -7 63 -25z m293 -9 c52
-52 31 -161 -36 -187 -58 -22 -126 16 -138 77 -20 110 99 186 174 110z m255
23 c43 -23 49 -57 16 -90 -18 -18 -19 -22 -6 -37 21 -24 34 -96 16 -90 -7 2
-17 20 -22 39 -12 45 -24 59 -53 59 -22 0 -24 -4 -24 -50 0 -38 -4 -50 -15
-50 -12 0 -15 19 -15 108 0 60 3 112 7 115 10 11 72 8 96 -4z m287 1 c0 -5
-16 -10 -35 -10 l-35 0 0 -105 c0 -87 -3 -105 -15 -105 -12 0 -15 18 -15 105
l0 105 -35 0 c-19 0 -35 5 -35 10 0 6 35 10 85 10 50 0 85 -4 85 -10z m340 -5
c-3 -5 -13 -9 -23 -8 -27 4 -57 -15 -57 -37 0 -11 16 -27 42 -42 56 -31 67
-51 48 -85 -9 -15 -27 -32 -41 -37 -33 -11 -79 0 -79 19 0 11 6 12 29 4 55
-19 95 28 54 62 -10 8 -30 21 -46 29 -15 7 -30 25 -34 39 -8 34 37 73 81 69
17 -2 29 -7 26 -13z m298 -19 c52 -52 31 -161 -36 -187 -58 -22 -126 16 -138
77 -20 110 99 186 174 110z m172 -71 l0 -105 50 0 c28 0 50 -4 50 -10 0 -6
-28 -10 -65 -10 l-65 0 0 115 c0 96 3 115 15 115 12 0 15 -18 15 -105z m220
18 c0 -95 13 -123 56 -123 39 0 54 35 54 127 0 67 3 83 15 83 12 0 15 -16 15
-86 0 -81 -1 -87 -29 -115 -43 -42 -101 -37 -126 12 -21 40 -21 189 0 189 12
0 15 -16 15 -87z m390 77 c0 -5 -16 -10 -35 -10 l-35 0 0 -105 c0 -87 -3 -105
-15 -105 -12 0 -15 18 -15 105 l0 105 -35 0 c-19 0 -35 5 -35 10 0 6 35 10 85
10 50 0 85 -4 85 -10z m130 -105 c0 -96 -3 -115 -15 -115 -12 0 -15 19 -15
115 0 96 3 115 15 115 12 0 15 -19 15 -115z m278 81 c52 -52 31 -161 -36 -187
-58 -22 -126 16 -138 77 -20 110 99 186 174 110z m232 -53 l55 -87 3 87 c2 68
6 87 17 87 12 0 15 -21 15 -116 0 -105 -2 -115 -17 -112 -10 2 -43 43 -73 92
l-55 88 -3 -91 c-2 -72 -6 -91 -17 -91 -12 0 -15 21 -15 115 0 148 12 152 90
28z"/>
<path d="M2350 1765 c0 -39 3 -45 21 -45 34 0 59 19 59 45 0 26 -25 45 -59 45
-18 0 -21 -6 -21 -45z"/>
<path d="M2636 1752 c-10 -29 -16 -56 -13 -58 3 -3 18 -4 35 -2 l30 3 -17 55
-17 55 -18 -53z"/>
<path d="M3410 1760 c0 -46 2 -50 24 -50 31 0 56 25 56 55 0 26 -25 45 -59 45
-18 0 -21 -6 -21 -50z"/>
<path d="M3682 1803 c-7 -3 -19 -18 -27 -33 -50 -96 39 -197 110 -125 19 18
25 35 25 70 0 69 -51 111 -108 88z"/>
<path d="M3970 1765 c0 -39 3 -45 21 -45 34 0 59 19 59 45 0 26 -25 45 -59 45
-18 0 -21 -6 -21 -45z"/>
<path d="M4862 1803 c-7 -3 -19 -18 -27 -33 -50 -96 39 -197 110 -125 19 18
25 35 25 70 0 69 -51 111 -108 88z"/>
<path d="M6052 1803 c-18 -7 -42 -57 -42 -88 0 -33 24 -81 45 -89 55 -21 93
10 102 81 5 46 3 54 -20 77 -24 24 -55 31 -85 19z"/>
</g>
</svg>
