<?xml version="1.0" standalone="no"?>
<!DOCTYPE svg PUBLIC "-//W3C//DTD SVG 20010904//EN"
 "http://www.w3.org/TR/2001/REC-SVG-20010904/DTD/svg10.dtd">
<svg version="1.0" xmlns="http://www.w3.org/2000/svg"
 width="2268.000000pt" height="1470.000000pt" viewBox="0 0 2268.000000 1470.000000"
 preserveAspectRatio="xMidYMid meet">

<g transform="translate(0.000000,1470.000000) scale(0.100000,-0.100000)"
fill="#000000" stroke="none">
<path d="M840 8335 l0 -2745 7753 0 c4263 0 7897 3 8075 7 l322 6 0 104 0 103
-7965 0 -7965 0 0 2525 0 2525 9640 0 9640 0 0 -1625 0 -1625 115 0 115 0 0
1735 0 1735 -9865 0 -9865 0 0 -2745z"/>
<path d="M10867 10603 c-4 -3 -7 -1000 -7 -2215 l0 -2208 3149 0 c2994 0 3149
1 3145 18 -8 35 55 83 82 61 21 -17 17 -35 -12 -58 l-27 -21 48 0 c39 0 45 2
36 14 -17 21 23 66 59 66 38 0 46 -25 15 -56 l-24 -24 43 0 c40 0 43 2 39 24
-6 28 28 56 68 56 34 0 44 -25 24 -56 -15 -23 -15 -24 14 -24 23 0 30 5 33 21
5 33 51 63 83 55 34 -9 42 -32 20 -56 -18 -19 -17 -20 13 -20 20 0 32 5 32 13
0 7 9 23 20 35 41 43 131 18 102 -29 -11 -17 -9 -19 12 -19 13 0 29 -7 36 -15
16 -19 92 -17 96 3 1 7 0 8 -3 2 -2 -5 -20 -10 -39 -10 -31 0 -34 2 -34 30 0
36 12 42 60 32 25 -6 34 -13 32 -25 -5 -28 46 -22 70 8 29 38 118 30 118 -10
0 -20 39 -19 62 2 23 20 80 22 102 4 27 -23 1 -41 -60 -41 -57 0 -73 -10 -48
-31 29 -24 85 -14 113 19 35 41 111 54 216 37 65 -10 73 -15 53 -26 -24 -13
-23 -56 1 -69 32 -17 96 -12 114 8 21 23 22 51 2 58 -8 4 -12 10 -9 15 3 5
318 9 740 9 l734 0 0 385 0 384 28 -16 c34 -19 62 -12 62 16 0 28 -27 51 -61
51 -21 0 -29 5 -29 18 0 15 6 18 29 14 20 -3 30 1 35 14 8 21 -20 54 -46 54
-17 0 -18 13 -18 217 0 169 3 214 12 205 7 -7 25 -12 40 -12 29 0 38 -14 14
-23 -8 -3 -25 -3 -38 -1 -22 5 -22 5 6 -21 20 -18 31 -23 40 -15 7 5 16 7 19
4 4 -4 21 -8 39 -9 18 -2 62 -6 98 -9 60 -6 64 -5 45 9 -11 9 -39 21 -61 27
-27 8 -40 16 -37 24 5 14 -56 44 -88 44 -11 0 -19 5 -19 10 0 6 -15 17 -32 25
-27 11 -34 11 -40 0 -9 -16 -70 -5 -76 14 -3 9 6 12 34 9 l39 -3 0 1505 0
1505 -4656 3 c-2561 1 -4659 -1 -4662 -5z m759 -1052 c51 -23 114 -95 114
-132 0 -29 -4 -31 -122 -45 -46 -5 -59 -3 -63 9 -4 8 -24 23 -46 32 -35 16
-44 17 -80 5 -75 -25 -110 -100 -95 -207 8 -60 33 -99 75 -119 68 -32 204 11
175 57 -3 5 -32 9 -65 9 l-59 0 0 69 c0 57 3 69 18 73 9 3 76 4 147 4 l130 -1
3 -131 3 -131 -33 -24 c-87 -64 -123 -74 -268 -74 -130 0 -137 1 -183 28 -91
54 -141 156 -140 287 2 153 74 256 213 303 8 3 65 6 125 6 86 0 119 -3 151
-18z m1209 -10 c109 -62 148 -137 149 -286 0 -87 -3 -107 -26 -155 -58 -125
-135 -164 -307 -158 -99 3 -112 6 -157 33 -70 44 -121 122 -134 208 -22 143
27 282 119 339 66 41 101 49 211 45 86 -3 112 -8 145 -26z m4053 5 c40 -22 80
-73 93 -122 14 -48 6 -52 -91 -53 -69 -1 -79 1 -98 24 -12 13 -34 28 -49 31
-34 9 -78 -15 -78 -41 0 -17 16 -24 106 -46 59 -14 126 -37 151 -51 110 -65
116 -210 12 -296 -51 -42 -89 -52 -203 -52 -116 0 -165 14 -213 62 -37 37 -77
134 -61 149 5 3 43 9 86 12 70 5 80 3 97 -16 11 -11 20 -24 20 -29 0 -12 56
-38 83 -38 28 0 77 35 77 55 0 22 -46 52 -92 59 -52 8 -154 43 -185 64 -65 42
-86 147 -44 216 23 36 77 78 117 89 10 3 69 4 129 3 81 -2 119 -7 143 -20z
m2182 -11 c28 -19 53 -47 68 -75 37 -73 34 -77 -62 -85 -81 -6 -84 -6 -109 19
-14 14 -37 28 -50 31 -34 9 -82 -15 -82 -40 0 -15 16 -23 90 -41 168 -43 203
-61 235 -124 50 -98 2 -214 -108 -261 -57 -25 -217 -26 -285 -3 -55 19 -108
75 -125 133 -21 67 -20 68 65 74 82 6 108 -1 118 -33 8 -24 54 -50 90 -50 37
0 75 28 75 56 0 24 -41 54 -74 54 -8 0 -50 11 -93 25 -132 42 -183 103 -168
203 5 38 15 55 50 88 54 52 95 64 220 61 93 -2 103 -5 145 -32z m543 24 c56
-15 112 -70 127 -123 7 -25 9 -49 5 -55 -3 -7 -41 -11 -90 -11 -71 0 -86 3
-97 19 -25 35 -60 45 -101 27 -67 -28 -47 -45 89 -79 56 -14 120 -37 142 -51
131 -83 96 -285 -58 -334 -50 -16 -206 -17 -264 -2 -79 21 -146 106 -146 187
0 18 9 21 73 26 88 8 114 2 121 -27 6 -25 54 -56 89 -56 28 0 77 35 77 55 0
23 -48 52 -97 60 -60 9 -151 42 -183 67 -59 46 -77 136 -40 208 20 38 74 82
116 93 37 9 199 7 237 -4z m-7573 -224 l0 -225 145 0 145 0 0 -80 0 -80 -240
0 -240 0 0 305 0 305 95 0 95 0 0 -225z m1472 206 c53 -23 78 -50 87 -93 11
-50 -4 -100 -39 -131 -18 -16 -30 -29 -28 -31 1 -1 16 -10 31 -20 97 -60 87
-233 -17 -289 -38 -20 -56 -22 -258 -25 l-217 -3 -3 295 c-2 163 -1 301 0 306
2 6 79 10 202 10 172 0 204 -3 242 -19z m673 -273 c59 -161 110 -299 112 -305
4 -10 -20 -13 -99 -13 l-104 0 -15 48 -14 47 -100 0 -100 0 -15 -47 -15 -48
-97 0 c-54 0 -98 4 -98 8 0 7 175 488 209 575 l11 27 108 0 109 0 108 -292z
m353 65 l2 -222 143 -3 142 -3 3 -77 3 -78 -246 0 -245 0 0 305 0 306 98 -3
97 -3 3 -222z m1070 212 c50 -22 80 -52 92 -94 13 -48 -3 -103 -40 -135 l-30
-25 33 -20 c52 -32 70 -75 65 -152 -4 -72 -27 -112 -81 -145 -29 -17 -56 -19
-254 -22 l-223 -4 0 306 0 306 200 0 c159 0 208 -3 238 -15z m392 -203 l5
-214 28 -24 c43 -37 100 -29 139 20 15 18 18 47 18 229 l0 208 98 -3 97 -3 0
-220 0 -220 -31 -55 c-22 -38 -46 -64 -79 -85 -45 -28 -56 -30 -160 -33 -145
-5 -184 6 -245 67 -63 63 -70 99 -70 352 l0 200 98 -3 97 -3 5 -213z m1280
-87 l0 -306 -97 3 -98 3 -3 290 c-1 159 0 295 3 302 3 9 32 13 100 13 l95 0 0
-305z m292 277 c9 -15 57 -87 107 -161 l90 -134 3 159 3 159 90 0 90 0 0 -300
0 -300 -92 -3 -91 -3 -101 150 c-56 82 -105 153 -111 156 -7 4 -10 -48 -10
-149 l0 -156 -90 0 -90 0 0 298 c0 164 3 302 7 305 3 4 45 7 92 7 83 0 87 -1
103 -28z m1006 -44 l-3 -73 -152 -3 c-126 -2 -153 -5 -154 -17 -1 -8 -2 -21
-3 -27 -1 -10 37 -14 144 -18 l145 -5 0 -70 0 -70 -142 -3 c-79 -1 -143 -6
-144 -10 -5 -67 -4 -84 5 -90 6 -3 79 -7 161 -7 l150 0 0 -70 0 -70 -257 -3
-258 -2 0 305 0 305 255 0 256 0 -3 -72z m-6293 -784 c30 -8 66 -25 81 -36 29
-24 63 -90 64 -125 0 -22 -3 -23 -86 -23 -77 0 -89 3 -116 25 -34 29 -83 33
-110 8 -10 -9 -18 -20 -18 -24 0 -13 56 -39 83 -39 36 0 179 -48 204 -69 57
-47 79 -137 52 -208 -16 -44 -67 -90 -126 -114 -47 -19 -67 -21 -157 -17 -84
4 -110 9 -146 29 -59 32 -100 92 -103 149 l-2 44 87 3 c86 3 87 2 100 -24 16
-32 64 -61 96 -57 34 4 72 32 72 54 0 27 -32 45 -115 65 -95 22 -168 58 -193
93 -45 63 -37 164 17 216 63 60 205 83 316 50z m3856 0 c69 -20 114 -62 134
-127 7 -25 11 -48 8 -51 -4 -3 -44 -6 -89 -6 -75 0 -85 2 -108 25 -37 37 -126
30 -126 -10 0 -17 50 -45 78 -45 35 0 156 -41 194 -66 43 -28 78 -89 78 -136
0 -76 -55 -152 -135 -187 -89 -39 -290 -18 -349 37 -34 32 -65 96 -66 133 0
26 2 27 86 34 47 4 86 5 87 3 25 -47 41 -64 69 -73 83 -29 158 46 85 84 -12 6
-60 20 -105 32 -130 31 -188 77 -202 157 -26 153 159 253 361 196z m871 0 c43
-12 67 -27 92 -55 33 -36 61 -103 50 -121 -3 -4 -44 -8 -92 -8 -76 0 -89 3
-99 20 -26 41 -133 34 -133 -9 0 -21 30 -34 105 -46 62 -10 170 -53 193 -78
50 -53 60 -139 25 -215 -34 -73 -130 -114 -259 -111 -103 2 -179 27 -216 71
-26 31 -66 134 -55 144 2 2 44 7 93 10 l89 5 14 -31 c15 -35 45 -50 97 -50 32
0 74 27 74 48 0 25 -94 72 -144 72 -31 0 -145 56 -166 82 -29 35 -41 96 -29
144 29 115 196 174 361 128z m-4312 -208 c0 -187 2 -205 20 -228 30 -39 73
-53 111 -38 59 25 63 43 66 264 l2 201 96 3 96 3 -3 -223 c-3 -212 -4 -225
-27 -268 -47 -91 -125 -130 -259 -130 -149 0 -252 59 -281 161 -14 46 -28 417
-17 444 4 12 25 15 101 15 l95 0 0 -204z m916 183 c56 -27 85 -76 92 -155 12
-152 -72 -234 -239 -234 l-79 0 0 -95 0 -95 -100 0 -100 0 0 300 0 300 192 0
c173 0 196 -2 234 -21z m607 -12 c46 -35 67 -75 74 -141 10 -97 -32 -182 -107
-214 -19 -9 -75 -18 -125 -21 l-90 -6 -2 -75 c-1 -41 -2 -83 -2 -92 -1 -16
-12 -18 -96 -18 l-95 0 0 301 0 300 203 -3 204 -3 36 -28z m327 -192 l0 -225
145 0 145 0 0 -75 0 -75 -240 0 c-185 0 -240 3 -240 13 -1 25 -1 533 -1 560
l1 27 95 0 95 0 0 -225z m538 -77 l-3 -303 -95 0 -95 0 -3 303 -3 302 101 0
100 0 -2 -302z m612 232 l0 -69 -152 -3 -153 -3 -3 -32 -3 -33 145 0 146 0 0
-70 0 -69 -142 -3 -143 -3 -3 -52 -3 -53 160 0 161 0 0 -75 0 -74 -255 0 -255
0 0 304 0 305 250 0 250 0 0 -70z m2033 -220 c59 -160 107 -297 107 -305 0
-12 -19 -15 -99 -15 l-100 0 -13 48 -14 47 -104 0 -104 0 -11 -45 -11 -45 -97
-3 c-82 -2 -97 0 -97 13 0 8 48 146 107 305 l107 290 111 0 112 0 106 -290z
m638 268 c41 -29 69 -88 69 -149 0 -66 -24 -108 -79 -144 l-40 -25 39 -37 c38
-38 133 -210 124 -225 -6 -9 -185 -11 -208 -2 -9 3 -16 10 -16 14 0 14 -92
174 -113 198 -11 12 -29 22 -38 22 -17 0 -19 -12 -21 -117 l-3 -118 -95 0 -95
0 -3 303 -2 303 227 -3 c197 -3 232 -5 254 -20z m359 -203 l0 -225 145 0 145
0 0 -75 0 -75 -245 0 -245 0 0 293 c0 162 3 297 7 300 3 4 48 7 100 7 l93 0 0
-225z m1167 -813 c18 -22 0 -39 -39 -38 -41 2 -58 12 -58 36 0 10 6 20 13 23
21 8 71 -5 84 -21z m-279 -4 c-5 -15 -48 -24 -48 -10 0 14 12 22 33 22 10 0
17 -5 15 -12z m-114 -20 c7 -30 -5 -41 -38 -32 -32 8 -34 31 -3 44 32 13 34
12 41 -12z m230 13 c3 -5 0 -14 -8 -20 -10 -9 -15 -8 -19 3 -9 22 15 37 27 17z
m-64 -35 c0 -18 -30 -30 -43 -17 -5 5 -6 14 -3 20 10 16 46 13 46 -3z m-272
-34 c5 -16 -39 -33 -55 -20 -6 5 -9 16 -6 24 7 18 54 15 61 -4z m-110 -4 c-6
-16 -33 -22 -56 -13 -14 5 -14 7 -2 15 22 14 62 12 58 -2z m192 -3 c0 -10 -10
-15 -30 -15 -47 0 -35 27 13 29 9 1 17 -6 17 -14z m170 -10 c0 -9 -9 -15 -25
-15 -16 0 -25 6 -25 15 0 9 9 15 25 15 16 0 25 -6 25 -15z m86 4 c3 -6 2 -15
-3 -20 -13 -13 -43 -1 -43 17 0 16 36 19 46 3z m84 -20 c0 -13 -38 -11 -46 2
-9 16 18 30 33 17 7 -6 13 -14 13 -19z m73 -4 c-4 -15 -36 -12 -41 3 -3 9 3
13 19 10 13 -1 23 -7 22 -13z m-1501 -30 c-3 -23 0 -26 15 -20 72 29 103 24
103 -16 0 -32 -93 -66 -102 -38 -3 8 -14 7 -35 -5 -37 -19 -70 -21 -75 -5 -3
8 -14 6 -37 -6 -21 -10 -45 -15 -62 -11 -15 3 -44 -1 -63 -9 -22 -10 -37 -11
-41 -5 -3 6 -17 7 -29 4 -17 -4 -25 0 -30 12 -9 24 7 37 46 38 18 1 39 6 47
10 13 9 46 13 147 20 53 3 69 13 53 32 -9 11 -8 15 2 18 8 2 21 7 29 9 26 9
35 1 32 -28z m512 -2 c-21 -15 -60 -17 -69 -4 -7 12 10 22 49 31 36 7 47 -7
20 -27z m226 22 c0 -19 -47 -38 -66 -27 -19 11 -1 28 36 35 14 2 26 5 28 6 1
0 2 -6 2 -14z m110 -10 c0 -7 -13 -16 -30 -20 -51 -11 -70 16 -22 33 31 11 52
5 52 -13z m-245 6 c8 -14 -28 -31 -44 -21 -10 6 -9 10 5 19 24 13 31 14 39 2z
m353 -3 c-7 -21 -56 -34 -70 -20 -10 10 -10 15 2 22 23 14 72 12 68 -2z m92
-2 c0 -18 -27 -28 -52 -20 -19 6 -19 6 -1 20 23 18 53 18 53 0z m98 -9 c3 -13
-4 -17 -27 -17 -34 0 -40 14 -13 29 22 13 36 9 40 -12z m105 6 c11 -11 -14
-33 -38 -33 -27 0 -35 8 -28 26 5 14 54 20 66 7z m81 1 c23 -9 20 -31 -5 -39
-29 -9 -62 21 -39 35 18 11 23 12 44 4z m95 -17 c13 -16 5 -27 -20 -27 -21 0
-33 15 -24 30 9 14 31 12 44 -3z m-1039 -13 c0 -12 7 -15 24 -12 42 8 53 -8
18 -26 -47 -24 -65 -21 -58 9 4 16 2 24 -5 23 -6 -2 -14 3 -16 10 -3 7 4 12
16 12 13 0 21 -6 21 -16z m1271 6 c20 -11 26 -40 8 -40 -20 0 -49 21 -49 35 0
18 14 19 41 5z m-1094 -27 c4 -10 -52 -33 -79 -33 -20 0 -5 30 20 38 33 13 54
11 59 -5z m117 8 c8 -13 -16 -30 -51 -37 -39 -8 -50 10 -21 30 25 17 64 21 72
7z m112 -3 c10 -15 -24 -38 -58 -38 -55 0 -22 47 34 49 9 1 20 -4 24 -11z
m111 -4 c7 -20 -13 -34 -49 -34 -62 0 -34 39 35 49 4 0 10 -6 14 -15z m-687
-9 c0 -8 -3 -15 -7 -15 -5 0 -18 -3 -30 -6 -17 -5 -23 -2 -23 9 0 13 9 18 53
26 4 0 7 -6 7 -14z m105 5 c7 -11 -35 -30 -63 -30 -14 1 -12 4 7 20 26 22 46
25 56 10z m693 -7 c-4 -24 -78 -32 -78 -9 0 17 15 24 53 25 22 1 28 -3 25 -16z
m108 5 c7 -11 -21 -38 -40 -38 -6 0 -18 5 -26 10 -13 9 -12 12 4 25 24 18 52
19 62 3z m104 -3 c17 -20 4 -35 -30 -35 -36 0 -49 19 -25 37 24 17 40 17 55
-2z m105 -8 c24 -18 11 -37 -25 -37 -32 0 -45 13 -36 35 7 19 36 19 61 2z
m182 -32 c3 -9 3 -18 0 -21 -9 -9 -48 16 -42 27 9 14 35 11 42 -6z m96 9 c3
-3 3 -12 0 -20 -4 -10 -10 -11 -24 -3 -10 5 -19 14 -19 19 0 11 33 14 43 4z
m101 -16 c13 -22 3 -32 -23 -23 -25 8 -29 48 -5 43 9 -2 22 -11 28 -20z
m-1224 -7 c0 -21 -50 -44 -75 -35 -24 10 -17 24 18 39 44 19 57 18 57 -4z
m120 9 c13 -8 13 -11 0 -24 -21 -21 -75 -25 -75 -6 0 8 11 20 25 27 30 15 31
15 50 3z m-470 -14 c0 -14 -13 -21 -62 -36 -47 -14 -46 15 2 37 35 16 60 16
60 -1z m110 1 c0 -16 -41 -37 -70 -37 -30 0 -24 27 8 38 39 15 62 14 62 -1z
m128 1 c-3 -7 -22 -19 -43 -26 -47 -15 -67 -2 -34 22 28 19 83 22 77 4z m362
-2 c0 -8 -14 -19 -30 -25 -48 -16 -81 5 -42 28 26 16 72 13 72 -3z m127 -2 c4
-12 -39 -34 -67 -34 -28 0 -36 21 -14 37 21 16 76 14 81 -3z m108 -9 c0 -15
-8 -21 -28 -23 -16 -2 -36 -1 -45 3 -15 6 -14 9 7 26 30 25 66 22 66 -6z
m-961 6 c8 -13 -16 -30 -52 -37 -49 -10 -37 27 13 39 32 8 34 7 39 -2z m-450
-26 c-4 -8 -1 -15 5 -15 19 0 12 -19 -11 -32 -13 -6 -39 -13 -58 -14 -48 -3
-110 -18 -137 -32 -30 -16 -73 -15 -73 2 0 12 116 69 144 71 6 1 24 7 39 13
16 7 33 10 38 7 5 -4 17 -1 26 4 25 15 33 13 27 -4z m1886 0 c16 -20 4 -35
-28 -35 -36 0 -56 14 -49 34 8 20 60 21 77 1z m-1582 -7 c-3 -7 -11 -13 -18
-13 -7 0 -15 6 -17 13 -3 7 4 12 17 12 13 0 20 -5 18 -12z m1782 -6 c13 -11
20 -24 16 -30 -17 -28 -85 1 -73 32 8 21 29 20 57 -2z m-1354 -14 c11 -17 -35
-50 -64 -46 -37 4 -37 23 0 41 39 20 54 21 64 5z m118 6 c9 -3 16 -10 16 -16
0 -12 -61 -37 -77 -31 -22 9 -14 31 15 41 15 6 28 11 29 11 1 1 8 -2 17 -5z
m136 -4 c13 -9 11 -13 -9 -31 -26 -21 -72 -23 -78 -2 -2 6 8 19 24 27 33 18
43 19 63 6z m-495 -10 c8 -13 -37 -41 -70 -43 -40 -3 -41 17 -3 36 38 19 64
21 73 7z m125 0 c0 -13 -54 -40 -80 -40 -27 0 -26 24 3 38 28 14 77 15 77 2z
m504 1 c9 -14 -21 -33 -55 -34 -18 -1 -34 3 -36 9 -8 22 79 46 91 25z m134
-12 c3 -19 -40 -37 -75 -31 -27 4 -30 27 -5 41 25 16 76 9 80 -10z m123 11
c17 0 9 -29 -11 -40 -32 -17 -75 -9 -75 15 0 20 37 37 63 29 8 -2 18 -4 23 -4z
m-1001 -9 c0 -16 -49 -41 -80 -41 -37 0 -39 15 -2 34 30 17 82 21 82 7z m-120
-10 c0 -8 -60 -41 -74 -41 -13 0 -5 30 12 39 21 13 62 14 62 2z m1614 -11 c48
-18 21 -67 -29 -54 -32 8 -42 28 -25 49 15 18 20 18 54 5z m127 -10 c24 -13
25 -50 2 -51 -31 -2 -48 2 -62 16 -12 12 -12 17 -1 29 15 19 34 20 61 6z
m-2151 -43 c0 -7 -9 -13 -20 -13 -22 0 -28 22 -7 29 16 6 27 -1 27 -16z m60
13 c0 -5 -9 -14 -20 -20 -16 -8 -20 -8 -20 4 0 13 13 23 33 25 4 1 7 -3 7 -9z
m630 -5 c0 -28 -90 -59 -104 -36 -6 9 20 35 44 44 30 11 60 7 60 -8z m130 0
c0 -19 -31 -35 -69 -35 -62 0 -22 48 42 49 17 1 27 -4 27 -14z m130 1 c0 -21
-26 -38 -62 -39 -40 -2 -50 24 -16 41 33 16 78 15 78 -2z m136 2 c10 -17 -33
-48 -67 -48 -22 0 -29 5 -29 18 0 32 80 57 96 30z m118 6 c39 -15 -1 -54 -55
-54 -30 0 -24 37 9 48 15 6 28 11 29 11 1 1 8 -2 17 -5z m-767 -20 c5 -14 -56
-44 -87 -44 -31 0 -20 22 21 43 36 18 60 19 66 1z m111 -1 c-3 -19 -72 -42
-85 -29 -12 12 36 46 64 46 18 0 24 -5 21 -17z m816 2 c7 -20 -48 -49 -80 -41
-28 7 -31 31 -6 45 26 16 79 13 86 -4z m126 5 c12 -7 12 -13 4 -27 -15 -24
-87 -25 -92 -2 -5 27 58 48 88 29z m-1200 -35 c-7 -8 -16 -15 -21 -15 -5 0 -9
7 -9 15 0 9 9 15 21 15 18 0 19 -2 9 -15z m1620 0 c25 -30 -26 -57 -74 -39
-16 6 -22 35 -9 47 12 13 71 7 83 -8z m130 -10 c20 -24 4 -45 -33 -45 -38 0
-61 19 -51 44 8 21 67 22 84 1z m-2190 -5 c0 -5 -13 -10 -30 -10 -16 0 -30 5
-30 10 0 6 14 10 30 10 17 0 30 -4 30 -10z m2314 4 c20 -8 21 -50 1 -58 -23
-9 -75 14 -75 33 0 10 3 21 7 24 8 9 46 9 67 1z m117 -14 c21 -12 26 -49 7
-51 -41 -4 -75 20 -65 45 7 18 30 21 58 6z m-1831 -20 c0 -15 -7 -20 -25 -20
-40 0 -25 27 23 39 1 1 2 -8 2 -19z m160 6 c0 -22 -40 -46 -77 -46 -37 0 -41
10 -15 32 33 30 92 38 92 14z m136 2 c10 -17 -33 -48 -67 -48 -22 0 -29 5 -29
18 0 32 80 57 96 30z m140 0 c4 -6 -3 -19 -16 -30 -27 -22 -90 -25 -90 -4 0
34 88 63 106 34z m142 -11 c3 -12 -7 -22 -31 -32 -40 -17 -79 -10 -75 14 7 37
99 54 106 18z m133 13 c5 0 9 -9 9 -20 0 -32 -89 -56 -105 -30 -14 22 44 64
73 54 8 -2 18 -4 23 -4z m-808 -7 c9 -9 -22 -43 -40 -43 -7 0 -13 11 -13 25 0
20 5 25 23 25 13 0 27 -3 30 -7z m962 -18 c0 -10 -12 -26 -26 -34 -33 -18 -79
-8 -79 19 0 26 27 40 70 37 27 -1 35 -6 35 -22z m-1085 5 c0 -13 -38 -37 -72
-45 -40 -10 -37 18 5 39 36 18 67 21 67 6z m1234 -5 c8 -22 -21 -45 -58 -45
-44 0 -61 18 -39 42 20 22 88 25 97 3z m110 -1 c9 -3 16 -15 16 -25 0 -15 -7
-19 -35 -19 -28 0 -35 4 -35 19 0 25 24 36 54 25z m-1817 -32 c-16 -15 -47
-11 -47 7 0 10 39 20 53 13 5 -2 2 -11 -6 -20z m2123 -13 c0 -22 -28 -33 -46
-18 -25 20 -16 40 16 37 21 -2 30 -8 30 -19z m155 7 c20 -15 15 -43 -10 -53
-21 -7 -64 12 -72 33 -12 31 47 46 82 20z m145 -16 c30 -30 16 -52 -33 -48
-43 3 -64 24 -54 52 9 23 62 21 87 -4z m138 -18 c19 -25 9 -37 -33 -37 -45 0
-67 24 -45 50 16 19 58 13 78 -13z m-1918 3 c0 -21 -45 -48 -70 -40 -27 8 -26
33 3 45 35 14 67 12 67 -5z m140 6 c0 -18 -53 -51 -81 -51 -35 0 -38 22 -7 44
24 17 88 22 88 7z m135 -1 c11 -17 -14 -39 -51 -46 -41 -8 -66 0 -58 19 11 30
95 50 109 27z m141 -2 c10 -16 -33 -48 -67 -48 -38 0 -47 19 -19 42 25 20 75
24 86 6z m152 -10 c4 -19 -44 -48 -78 -48 -32 0 -37 30 -10 52 29 23 83 21 88
-4z m136 16 c22 -8 20 -41 -3 -54 -26 -14 -88 -13 -97 2 -9 14 40 58 66 58 10
0 25 -3 34 -6z m-954 -16 c-1 -32 -110 -77 -110 -46 0 16 26 42 50 51 28 10
60 7 60 -5z m118 0 c-7 -22 -73 -52 -94 -44 -18 7 -17 9 9 32 30 26 92 34 85
12z m1003 -4 c11 -14 10 -19 -10 -35 -25 -20 -86 -26 -96 -9 -10 16 4 48 23
53 37 10 70 6 83 -9z m150 -10 c11 -14 10 -19 -10 -35 -28 -23 -74 -25 -92 -3
-11 14 -10 19 10 35 28 23 74 25 92 3z m156 -10 c14 -37 -30 -63 -83 -50 -29
8 -32 40 -6 55 28 17 82 13 89 -5z m147 -7 c15 -11 17 -17 7 -35 -18 -34 -101
-28 -101 7 0 39 57 55 94 28z m157 -16 c20 -16 21 -21 10 -35 -8 -9 -29 -16
-51 -16 -22 0 -43 7 -51 16 -11 14 -10 19 10 35 13 11 31 19 41 19 10 0 28 -8
41 -19z m163 -23 c8 -14 7 -22 -6 -35 -14 -14 -24 -15 -55 -7 -40 10 -57 39
-31 55 21 14 80 6 92 -13z m-1719 -7 c11 -19 -51 -61 -91 -61 -25 0 -15 39 14
54 31 17 68 20 77 7z m138 3 c22 -22 -63 -74 -98 -60 -22 8 -18 33 7 50 22 16
79 22 91 10z m142 -14 c0 -8 -17 -23 -37 -33 -30 -15 -41 -16 -59 -6 l-23 12
28 24 c32 27 91 29 91 3z m152 4 c9 -23 -19 -45 -65 -51 -34 -5 -43 -2 -48 12
-5 12 0 24 15 37 29 23 89 24 98 2z m-693 -2 c7 -12 -6 -28 -41 -46 -39 -20
-63 -21 -63 -2 0 33 88 74 104 48z m121 -1 c8 -13 -44 -51 -70 -51 -33 0 -37
11 -13 37 22 23 72 32 83 14z m720 -2 c13 -20 -26 -49 -67 -49 -42 0 -50 17
-22 44 17 18 79 22 89 5z m155 1 c20 -13 3 -42 -32 -54 -32 -11 -78 0 -78 19
0 34 75 58 110 35z m1261 0 c10 -6 19 -20 19 -30 0 -15 -7 -20 -29 -20 -45 0
-61 10 -61 36 0 19 5 24 26 24 14 0 34 -5 45 -10z m-1107 -6 c44 -17 -10 -68
-66 -62 -62 6 -42 68 23 68 15 0 34 -3 43 -6z m160 -10 c22 -8 20 -41 -3 -54
-41 -21 -101 -9 -101 21 0 31 59 50 104 33z m799 -9 c1 -5 -6 -11 -15 -13 -11
-2 -18 3 -18 13 0 17 30 18 33 0z m-629 -18 c9 -15 7 -21 -8 -33 -34 -25 -106
-13 -106 17 0 38 93 51 114 16z m160 0 c28 -21 12 -55 -29 -63 -57 -10 -97 30
-63 64 16 16 70 15 92 -1z m170 -23 c9 -8 16 -17 16 -19 0 -15 -37 -35 -65
-35 -31 0 -65 21 -65 39 0 31 87 43 114 15z m156 -12 c26 -21 18 -50 -17 -58
-29 -8 -71 9 -79 31 -16 40 55 61 96 27z m-1783 -7 c7 -21 -22 -52 -54 -58
-59 -11 -72 22 -20 53 38 24 66 26 74 5z m141 -11 c2 -16 -6 -25 -31 -38 -42
-19 -61 -20 -76 -3 -8 11 -5 19 12 34 42 39 90 42 95 7z m152 -4 c0 -10 -14
-24 -34 -34 -41 -19 -60 -20 -75 -3 -16 20 8 47 49 56 43 9 60 4 60 -19z
m-563 3 c9 -22 -31 -53 -69 -53 -40 0 -34 27 12 51 43 23 49 23 57 2z m133 4
c0 -38 -90 -70 -98 -35 -2 10 8 23 25 32 35 19 73 20 73 3z m583 -1 c3 -8 -3
-22 -14 -32 -18 -16 -20 -16 -39 1 -11 10 -20 24 -20 32 0 18 66 18 73 -1z
m150 1 c16 -11 16 -14 2 -34 -19 -27 -79 -41 -100 -23 -22 18 -19 28 18 50 37
23 57 25 80 7z m167 -12 c10 -13 10 -19 -5 -35 -22 -24 -45 -26 -45 -5 0 9 -7
18 -15 21 -8 4 -15 12 -15 20 0 19 64 18 80 -1z m158 -4 c21 -13 10 -44 -21
-59 -33 -16 -75 -8 -84 15 -13 35 67 68 105 44z m167 -15 c38 -27 -7 -67 -67
-58 -39 6 -48 30 -19 54 27 21 60 23 86 4z m160 -8 c49 -22 21 -68 -43 -68
-31 0 -65 29 -54 46 9 14 43 33 59 34 7 0 24 -5 38 -12z m179 -21 c48 -35 -29
-86 -79 -53 -29 19 -31 29 -9 50 19 19 64 21 88 3z m166 -12 c34 -18 39 -40
11 -55 -30 -15 -66 -12 -91 8 l-23 19 21 21 c26 26 43 27 82 7z m-1816 -11 c9
-3 16 -12 16 -19 0 -22 -50 -55 -82 -55 -24 0 -29 4 -26 21 2 13 18 30 38 40
40 22 34 21 54 13z m153 -11 c9 -23 -40 -63 -77 -63 -52 0 -50 38 3 64 41 20
66 20 74 -1z m139 2 c19 -15 18 -16 -9 -40 -51 -45 -125 -23 -82 25 9 10 27
21 39 23 11 2 24 5 27 6 3 0 14 -6 25 -14z m1708 2 c11 -8 17 -23 14 -38 -2
-20 -9 -25 -40 -27 -63 -5 -100 32 -66 66 16 16 70 15 92 -1z m-2126 -9 c19
-19 -24 -58 -65 -58 -18 0 -33 4 -33 8 0 20 50 61 76 62 5 0 15 -5 22 -12z
m577 -13 c0 -25 -61 -57 -93 -49 -54 15 -4 77 58 72 27 -2 35 -7 35 -23z m156
9 c11 -14 10 -20 -14 -40 -32 -27 -65 -31 -93 -9 -19 15 -18 16 9 40 32 29 78
33 98 9z m166 -9 c12 -33 -54 -74 -98 -60 -23 8 -25 32 -2 57 21 23 91 25 100
3z m1397 -1 c46 -45 -25 -88 -82 -48 -21 15 -29 44 -15 57 13 13 82 7 97 -9z
m-1240 0 c34 -13 5 -56 -45 -69 -18 -4 -32 0 -50 14 l-24 21 24 20 c23 20 64
26 95 14z m170 -10 c40 -15 -1 -74 -52 -74 -29 0 -62 17 -62 32 0 36 66 61
114 42z m1229 -9 c39 -29 0 -77 -49 -60 -57 21 -59 75 -2 75 18 0 41 -7 51
-15z m-1049 -11 c21 -21 20 -30 -6 -48 -26 -18 -71 -21 -99 -6 -24 13 -24 25
1 50 24 24 82 27 104 4z m166 -22 c20 -16 21 -19 6 -31 -19 -16 -66 -20 -83
-7 -7 4 -13 17 -13 26 0 33 55 40 90 12z m181 -2 c21 -12 25 -40 7 -58 -13
-13 -66 -16 -92 -6 -19 7 -21 45 -4 62 15 15 63 16 89 2z m-1822 -34 c9 -11 5
-19 -20 -40 -34 -29 -72 -31 -77 -5 -2 10 11 25 30 38 39 24 52 26 67 7z m130
5 c22 -14 -11 -58 -48 -66 -55 -12 -69 19 -25 54 29 23 51 26 73 12z m138 -6
c8 -23 -26 -55 -58 -55 -34 0 -45 15 -28 37 26 31 76 42 86 18z m156 1 c15
-39 -69 -84 -101 -53 -13 14 -13 18 -1 33 26 32 93 45 102 20z m151 1 c41 -30
-36 -87 -89 -67 -29 11 -32 31 -7 52 33 29 69 35 96 15z m1443 -3 c15 -41 -46
-69 -94 -43 -22 12 -30 38 -16 52 3 4 28 7 55 7 36 0 50 -4 55 -16z m-1278 -8
c9 -11 9 -19 0 -35 -21 -33 -87 -42 -110 -15 -11 14 -10 20 14 40 31 27 78 31
96 10z m1612 -12 c24 -12 30 -21 27 -42 -3 -24 -8 -27 -45 -30 -32 -2 -47 2
-62 17 -25 25 -26 35 -5 55 20 20 47 20 85 0z m-1456 -19 c0 -16 -8 -21 -37
-23 -40 -3 -50 12 -26 36 20 20 63 11 63 -13z m173 19 c29 -8 28 -39 -2 -59
-31 -20 -85 -16 -100 8 -9 15 -7 22 13 38 24 20 49 23 89 13z m142 -24 c0 -5
12 -10 26 -10 41 0 27 -33 -19 -42 -61 -13 -105 25 -59 51 22 13 52 14 52 1z
m227 -11 c19 -17 16 -36 -9 -53 -31 -22 -71 -20 -99 4 l-24 20 29 26 c23 20
36 25 59 20 17 -3 36 -11 44 -17z m173 -24 c10 -12 9 -16 -4 -21 -9 -3 -16
-12 -16 -20 0 -9 -12 -14 -35 -14 -28 0 -38 5 -44 23 -5 13 -5 27 1 35 14 17
83 15 98 -3z m190 -15 c24 -24 17 -44 -21 -60 -58 -24 -117 28 -77 68 19 19
76 14 98 -8z m-1870 -19 c0 -23 -45 -61 -72 -61 -42 0 -30 52 17 70 35 15 55
11 55 -9z m140 0 c0 -25 -24 -49 -56 -57 -33 -8 -54 1 -54 25 0 27 37 51 77
51 26 0 33 -4 33 -19z m140 -6 c0 -44 -100 -76 -108 -33 -5 25 37 58 75 58 28
0 33 -3 33 -25z m150 10 c18 -21 -29 -65 -70 -65 -43 0 -51 27 -16 57 31 26
68 30 86 8z m1598 9 c14 -4 22 -14 22 -29 0 -24 -17 -35 -56 -35 -20 0 -24 5
-24 29 0 25 9 37 30 40 3 0 15 -2 28 -5z m-2265 -10 c11 -11 -17 -56 -44 -70
-39 -20 -49 -18 -49 10 0 38 69 83 93 60z m822 -24 c0 -47 -96 -66 -112 -23
-10 25 34 55 76 51 31 -3 36 -7 36 -28z m169 8 c13 -22 -15 -54 -55 -63 -57
-13 -82 42 -31 70 34 18 72 15 86 -7z m174 -25 c7 -45 -95 -75 -117 -34 -8 14
-5 23 10 40 29 31 102 27 107 -6z m182 -12 c0 -47 -98 -70 -124 -29 -12 21 14
55 48 60 33 6 76 -12 76 -31z m171 9 c26 -15 24 -35 -7 -59 -43 -34 -114 -22
-114 19 0 40 75 64 121 40z m173 -10 c28 -10 35 -47 14 -68 -15 -15 -82 -16
-109 -2 -28 15 -24 47 9 64 32 18 52 19 86 6z m190 -20 c18 -7 26 -17 26 -34
0 -30 -26 -46 -72 -46 -62 1 -89 44 -46 74 26 18 56 20 92 6z m-1707 -36 c9
-25 -36 -65 -71 -62 -40 4 -43 22 -10 53 30 28 72 33 81 9z m138 6 c20 -32
-60 -94 -94 -73 -25 16 -24 31 3 58 26 26 79 34 91 15z m134 -4 c16 -19 4 -44
-30 -62 -50 -26 -92 13 -51 48 33 29 64 34 81 14z m171 -22 c0 -20 -50 -54
-80 -54 -15 0 -33 7 -40 15 -11 13 -9 20 10 40 12 13 32 25 44 27 27 5 66 -12
66 -28z m-705 -9 c0 -24 -50 -54 -65 -39 -7 7 -4 19 11 38 24 30 54 31 54 1z
m843 1 c5 -25 -10 -37 -48 -40 -53 -4 -50 47 3 57 32 6 42 2 45 -17z m166 14
c33 -12 33 -33 0 -59 -40 -32 -104 -26 -104 9 0 23 39 55 72 59 4 1 18 -3 32
-9z m196 -26 c13 -14 12 -18 -13 -40 -51 -43 -134 -24 -108 25 6 11 19 25 29
31 21 13 72 4 92 -16z m-1090 7 c0 -12 -29 -35 -36 -28 -11 10 5 37 21 37 8 0
15 -4 15 -9z m1264 -17 c20 -20 20 -27 -1 -47 -29 -26 -70 -31 -98 -13 -30 20
-31 30 -5 56 24 24 82 27 104 4z m169 -3 c34 -13 40 -38 17 -61 -27 -27 -91
-27 -114 -1 -17 19 -17 21 8 45 27 28 50 32 89 17z m208 -21 c45 -25 4 -80
-59 -80 -43 0 -72 16 -72 40 0 40 82 65 131 40z m-1681 -48 c0 -26 -41 -62
-72 -62 -47 0 -37 46 16 74 32 16 56 11 56 -12z m108 -14 c-4 -40 -48 -62 -74
-37 -13 14 -12 18 6 42 13 16 31 27 46 27 22 0 25 -4 22 -32z m159 16 c6 -17
-29 -60 -56 -67 -23 -6 -61 9 -61 25 0 6 10 22 22 35 26 27 85 32 95 7z m284
6 c40 -22 12 -74 -47 -86 -21 -4 -34 -1 -47 13 -15 18 -15 21 -1 42 25 35 63
48 95 31z m1309 3 c-1 -20 -18 -29 -52 -30 -31 -1 -38 3 -38 18 0 16 7 19 45
19 25 0 45 -3 45 -7z m-1152 -9 c42 -12 22 -69 -31 -87 -26 -10 -67 10 -67 31
0 19 24 45 50 55 21 7 22 8 48 1z m-330 -26 c-2 -18 -10 -23 -32 -23 -37 0
-46 22 -14 34 38 16 50 13 46 -11z m509 7 c29 -20 19 -52 -23 -73 -73 -35
-119 36 -49 76 27 16 47 15 72 -3z m177 -11 c19 -7 21 -47 4 -61 -38 -30 -108
-23 -108 10 0 44 54 70 104 51z m203 -30 c16 -22 6 -42 -28 -59 -38 -20 -61
-19 -87 5 -24 23 -18 49 16 70 23 14 84 4 99 -16z m183 -14 c27 -27 13 -54
-35 -70 -67 -22 -126 37 -73 74 32 22 84 20 108 -4z m191 -10 c30 -17 24 -57
-11 -75 -35 -18 -51 -19 -84 -4 -56 26 -28 89 40 89 19 0 44 -5 55 -10z"/>
<path d="M12624 9415 c-54 -24 -69 -58 -69 -160 0 -108 20 -147 87 -167 35
-10 45 -10 77 8 49 26 72 77 73 158 0 77 -23 132 -67 157 -36 21 -60 22 -101
4z"/>
<path d="M13260 9380 l0 -31 66 3 c51 2 70 7 78 21 16 26 -7 37 -81 37 l-63 0
0 -30z"/>
<path d="M13262 9149 l3 -52 55 -2 c73 -3 110 16 110 56 0 37 -27 49 -111 49
l-60 0 3 -51z"/>
<path d="M13951 9344 c-6 -21 -17 -60 -25 -86 l-15 -48 54 0 c30 0 55 3 55 6
0 10 -32 109 -45 138 l-13 30 -11 -40z"/>
<path d="M15370 9380 c0 -30 1 -30 54 -30 67 0 86 7 86 30 0 23 -19 30 -86 30
-53 0 -54 0 -54 -30z"/>
<path d="M15367 9193 c-2 -5 -2 -29 1 -55 l4 -47 58 3 c61 3 110 26 110 51 0
35 -38 55 -104 55 -36 0 -67 -3 -69 -7z"/>
<path d="M13390 8494 l0 -67 40 6 c23 3 52 12 65 21 55 36 10 106 -66 106
l-39 0 0 -66z"/>
<path d="M13974 8546 c-10 -26 3 -100 19 -110 28 -18 100 13 112 48 8 25 6 31
-18 52 -32 27 -104 34 -113 10z"/>
<path d="M17486 8448 c-14 -46 -26 -87 -26 -91 0 -4 25 -7 55 -7 30 0 55 4 55
8 0 5 -13 46 -29 92 l-28 83 -27 -85z"/>
<path d="M18090 8519 l0 -41 65 4 c45 3 71 9 83 22 16 16 16 18 -7 37 -17 14
-39 19 -82 19 l-59 0 0 -41z"/>
<path d="M1290 8335 l0 -2215 4660 0 4660 0 0 2215 0 2215 -4660 0 -4660 0 0
-2215z m4822 1157 c120 -58 188 -160 188 -283 0 -112 -56 -205 -172 -286 -44
-31 -67 -54 -65 -63 6 -24 168 -241 176 -236 4 3 18 37 32 76 13 38 28 70 34
70 6 0 35 -6 65 -14 30 -8 81 -19 112 -26 65 -13 72 -19 59 -52 -5 -13 -19
-54 -31 -93 -13 -38 -36 -93 -52 -121 l-28 -51 42 -35 c24 -19 72 -54 108 -77
36 -23 65 -46 65 -51 0 -14 -155 -210 -167 -210 -17 0 -100 51 -166 102 l-63
49 -57 -42 c-31 -24 -88 -56 -127 -73 -68 -29 -75 -30 -230 -31 -153 0 -163 1
-233 29 -133 52 -223 147 -263 280 -60 195 41 408 250 527 28 16 51 32 51 34
0 3 -16 26 -36 52 -118 154 -131 326 -33 437 84 95 177 127 354 123 111 -3
125 -5 187 -35z m-912 -112 l0 -120 -385 0 -385 0 0 -160 0 -160 356 -2 355
-3 1 -118 0 -118 -356 1 -356 0 0 -195 0 -195 398 -2 397 -3 3 -116 3 -116
-33 -7 c-40 -8 -1032 -8 -1053 0 -13 5 -15 97 -15 720 l0 714 535 0 535 0 0
-120z m2397 93 c186 -74 280 -257 253 -492 -20 -172 -118 -294 -286 -356 -40
-15 -92 -19 -281 -23 l-233 -4 0 -263 c0 -201 -3 -264 -12 -267 -21 -8 -233
-10 -261 -3 l-27 7 0 715 0 714 398 -3 c374 -4 400 -5 449 -25z"/>
<path d="M5860 9333 c-40 -15 -70 -46 -76 -78 -7 -42 17 -94 77 -166 l41 -48
60 47 c67 52 88 85 88 135 0 78 -108 141 -190 110z"/>
<path d="M5746 8699 c-112 -75 -159 -203 -112 -307 45 -100 187 -135 315 -78
36 16 111 67 111 76 0 4 -59 81 -131 171 -73 90 -133 165 -134 166 -1 2 -23
-11 -49 -28z"/>
<path d="M7058 9255 c-5 -5 -8 -101 -8 -213 l0 -205 143 6 c174 8 238 19 277
49 126 93 93 299 -53 343 -57 17 -347 33 -359 20z"/>
<path d="M20274 7419 c-4 -7 2 -20 16 -31 25 -21 47 -23 52 -6 3 7 12 6 30 -6
17 -11 28 -13 33 -7 4 7 12 8 24 2 10 -6 26 -10 37 -9 10 0 27 -3 37 -7 26
-11 20 8 -11 30 -16 12 -46 20 -77 22 -74 4 -110 9 -122 16 -7 4 -15 2 -19 -4z"/>
<path d="M20594 7367 c25 -22 93 -43 104 -33 7 8 -67 46 -99 52 l-34 5 29 -24z"/>
<path d="M20336 7341 c-6 -10 49 -61 65 -61 18 0 8 29 -17 49 -29 23 -40 26
-48 12z"/>
<path d="M20410 7332 c0 -5 11 -19 25 -32 21 -19 29 -22 43 -14 13 8 23 7 40
-4 37 -24 40 -3 4 29 -37 33 -55 37 -45 12 7 -17 6 -17 -20 0 -28 18 -47 22
-47 9z"/>
<path d="M20750 7270 c35 -30 50 -36 50 -22 0 8 -66 52 -77 52 -5 0 8 -14 27
-30z"/>
<path d="M20484 7248 c-7 -11 47 -68 66 -68 15 0 12 27 -6 44 -27 27 -52 37
-60 24z"/>
<path d="M21080 7054 c8 -8 23 -20 34 -26 19 -10 18 -8 -3 16 -26 27 -53 37
-31 10z"/>
<path d="M21150 6972 c0 -17 66 -70 95 -76 l30 -8 -30 32 c-39 42 -95 72 -95
52z"/>
<path d="M20213 6893 c-21 -8 -15 -51 9 -67 28 -20 62 -20 78 -1 10 12 9 20
-4 40 -9 14 -23 25 -30 25 -8 0 -20 2 -28 4 -7 3 -19 2 -25 -1z"/>
<path d="M20343 6864 c-13 -35 52 -88 84 -68 27 17 26 31 -1 59 -29 28 -73 33
-83 9z"/>
<path d="M21300 6845 c0 -15 57 -81 64 -74 3 3 -10 23 -29 45 -19 21 -34 34
-35 29z"/>
<path d="M20367 6753 c-13 -13 -7 -34 18 -58 50 -51 117 -15 74 39 -15 19 -30
26 -53 26 -18 0 -36 -3 -39 -7z"/>
<path d="M21449 6683 c26 -38 49 -56 33 -27 -6 11 -20 28 -33 39 l-23 20 23
-32z"/>
<path d="M21531 6575 c0 -5 13 -26 29 -45 16 -19 29 -30 29 -25 0 6 -13 26
-29 45 -16 19 -29 31 -29 25z"/>
<path d="M21642 6400 c14 -24 31 -46 38 -48 16 -6 -18 53 -44 76 -16 14 -15 8
6 -28z"/>
<path d="M21630 6309 c0 -6 10 -29 22 -50 21 -38 48 -59 48 -37 0 9 3 9 12 0
7 -7 20 -12 30 -12 18 0 17 2 -1 39 -20 37 -44 56 -68 52 -6 -1 -14 3 -18 9
-8 13 -25 13 -25 -1z"/>
<path d="M21700 6158 c0 -22 44 -91 55 -87 6 2 9 8 7 14 -2 5 5 3 15 -5 25
-21 63 -41 63 -35 0 3 -11 27 -25 54 -24 49 -53 71 -65 51 -5 -7 -11 -6 -20 5
-15 18 -30 20 -30 3z"/>
<path d="M18054 6145 c26 -19 70 -19 86 0 11 13 5 15 -46 15 -54 -1 -57 -2
-40 -15z"/>
<path d="M18395 6149 c-10 -14 23 -46 55 -54 26 -6 93 29 94 50 1 14 -141 19
-149 4z"/>
<path d="M17116 6119 c-29 -35 -31 -40 -14 -57 19 -19 41 -14 71 13 29 28 34
44 15 63 -20 20 -45 14 -72 -19z"/>
<path d="M17372 6117 c-29 -30 -28 -55 2 -68 47 -22 116 40 86 76 -19 22 -64
18 -88 -8z"/>
<path d="M17511 6104 c-27 -34 -26 -40 3 -59 41 -27 115 20 101 64 -10 33 -77
29 -104 -5z"/>
<path d="M17667 6102 c-25 -28 -21 -60 8 -74 51 -23 126 39 95 77 -18 21 -83
19 -103 -3z"/>
<path d="M17848 6105 c-38 -21 -46 -54 -18 -77 44 -36 110 -11 110 42 0 46
-42 62 -92 35z"/>
<path d="M18585 6039 c-26 -16 -35 -29 -35 -56 0 -28 27 -43 78 -43 59 0 97
57 58 89 -21 18 -78 23 -101 10z"/>
<path d="M17067 6002 c-21 -23 -22 -68 -2 -76 40 -15 99 50 74 80 -16 20 -53
17 -72 -4z"/>
<path d="M17321 5986 c-25 -27 -25 -53 1 -70 41 -26 119 42 89 78 -20 24 -64
20 -90 -8z"/>
<path d="M17476 5989 c-60 -47 1 -118 62 -72 35 26 40 57 10 77 -30 21 -40 20
-72 -5z"/>
<path d="M17619 5969 c-45 -45 6 -96 70 -69 35 14 50 52 31 75 -18 22 -76 19
-101 -6z"/>
<path d="M18555 5901 c-59 -25 -58 -84 2 -100 30 -9 44 -7 73 7 19 9 36 24 38
33 7 41 -66 80 -113 60z"/>
<path d="M17145 5865 c-30 -29 -31 -46 -6 -69 43 -39 121 40 79 82 -19 19 -47
14 -73 -13z"/>
<path d="M17276 5858 c-30 -42 -14 -78 34 -78 47 0 78 58 48 88 -20 20 -65 14
-82 -10z"/>
<path d="M18731 5861 c-44 -44 -11 -91 65 -91 45 0 74 22 74 57 0 29 -23 45
-74 50 -35 4 -48 1 -65 -16z"/>
<path d="M17421 5849 c-27 -26 -24 -59 8 -75 32 -16 75 0 90 33 24 53 -51 86
-98 42z"/>
<path d="M17592 5848 c-23 -12 -38 -48 -29 -72 10 -25 66 -30 96 -9 34 26 38
57 9 77 -26 18 -44 19 -76 4z"/>
<path d="M21825 5823 c3 -21 14 -49 22 -62 15 -23 17 -23 29 -7 12 17 13 16
24 -3 6 -12 16 -19 22 -15 5 4 14 0 19 -7 15 -25 21 -1 9 38 -16 49 -31 68
-41 52 -4 -8 -9 -4 -14 10 -8 25 -25 28 -26 4 0 -15 -3 -14 -16 5 -24 34 -36
27 -28 -15z"/>
<path d="M17383 5718 c-18 -24 -23 -49 -12 -69 15 -30 76 -22 102 12 28 39 10
69 -42 69 -21 0 -43 -6 -48 -12z"/>
<path d="M17542 5704 c-47 -33 -21 -94 41 -94 26 0 67 38 67 62 0 41 -66 62
-108 32z"/>
<path d="M21867 5694 c-7 -8 -1 -45 15 -86 10 -27 38 -39 38 -18 0 6 5 10 10
10 6 0 10 -7 10 -16 0 -11 6 -15 19 -11 12 3 22 -1 25 -10 10 -25 26 -3 20 25
-12 49 -33 82 -49 76 -8 -4 -15 -1 -15 5 0 22 -20 11 -21 -11 0 -20 -2 -19
-16 10 -17 32 -24 38 -36 26z"/>
<path d="M18067 5642 c-38 -42 -10 -92 52 -92 62 0 94 56 53 93 -25 23 -85 22
-105 -1z"/>
<path d="M18462 5594 c-51 -36 -1 -111 67 -100 37 6 71 31 71 53 0 8 -11 25
-25 38 -28 29 -79 33 -113 9z"/>
<path d="M17356 5579 c-41 -32 -33 -82 15 -94 33 -8 79 27 79 60 0 23 -32 55
-56 55 -6 0 -23 -9 -38 -21z"/>
<path d="M18678 5575 c-53 -29 -45 -75 19 -101 24 -10 39 -11 62 -3 62 22 64
80 5 105 -41 17 -52 17 -86 -1z"/>
<path d="M17505 5555 c-29 -29 -31 -46 -7 -67 41 -35 86 -26 112 22 9 17 6 25
-14 45 -32 32 -60 32 -91 0z"/>
<path d="M17672 5540 c-26 -24 -28 -52 -7 -74 38 -38 102 -23 120 28 8 24 6
31 -14 47 -30 25 -72 24 -99 -1z"/>
<path d="M21830 5511 c0 -43 29 -89 49 -77 14 9 6 82 -11 104 -21 25 -38 13
-38 -27z"/>
<path d="M17851 5521 c-42 -42 -13 -101 51 -101 30 0 68 34 68 60 0 28 -24 50
-61 56 -29 5 -41 2 -58 -15z"/>
<path d="M21900 5511 c0 -38 25 -101 39 -101 6 0 11 12 11 27 0 30 15 21 22
-12 2 -11 10 -19 17 -17 7 1 19 -3 27 -9 21 -17 27 -5 19 40 -6 37 -35 80 -35
52 0 -6 -4 -11 -10 -11 -5 0 -10 9 -10 20 0 24 -18 27 -27 4 -4 -12 -8 -11
-17 7 -18 36 -36 35 -36 0z"/>
<path d="M17470 5408 c-25 -27 -25 -39 -2 -68 36 -45 112 -17 112 41 0 50 -72
67 -110 27z"/>
<path d="M18631 5411 c-27 -27 -27 -46 4 -76 31 -32 96 -34 125 -5 11 11 20
26 20 34 0 54 -108 88 -149 47z"/>
<path d="M17637 5392 c-37 -41 -7 -102 51 -102 26 0 72 41 72 65 0 47 -90 74
-123 37z"/>
<path d="M21770 5389 c-12 -21 -5 -75 12 -96 6 -7 19 -13 29 -13 16 0 19 8 19
43 0 41 -21 87 -40 87 -5 0 -14 -9 -20 -21z"/>
<path d="M18846 5377 c-45 -45 -8 -97 70 -97 47 0 74 23 74 62 0 34 -21 49
-74 55 -38 5 -48 2 -70 -20z"/>
<path d="M17815 5365 c-14 -13 -25 -29 -25 -35 0 -22 49 -60 78 -60 61 0 88
54 48 95 -32 32 -70 32 -101 0z"/>
<path d="M21854 5365 c-10 -40 12 -105 36 -105 16 0 20 7 20 38 0 68 -43 119
-56 67z"/>
<path d="M19090 5364 c-40 -16 -53 -70 -22 -97 10 -9 36 -19 59 -23 36 -5 45
-3 67 19 32 32 32 39 4 72 -23 26 -78 40 -108 29z"/>
<path d="M21930 5322 c0 -27 6 -57 14 -68 15 -19 15 -19 29 0 14 19 15 19 21
-2 8 -25 26 -30 26 -7 0 8 5 15 10 15 6 0 10 -9 10 -20 0 -21 15 -27 25 -10 8
13 -13 87 -26 96 -6 4 -15 1 -19 -6 -5 -8 -9 -5 -13 9 -6 25 -27 28 -27 4 -1
-13 -5 -10 -16 10 -22 40 -34 33 -34 -21z"/>
<path d="M18210 5327 c-19 -9 -26 -22 -28 -50 -3 -35 -1 -39 34 -53 45 -19 78
-12 100 21 21 33 10 64 -32 81 -40 17 -42 17 -74 1z"/>
<path d="M19290 5310 c-27 -27 -25 -55 6 -79 61 -48 171 -9 143 51 -22 49
-112 65 -149 28z"/>
<path d="M21682 5248 c-21 -21 -14 -82 12 -107 22 -20 25 -21 40 -6 23 23 21
80 -4 105 -23 23 -31 25 -48 8z"/>
<path d="M17805 5228 c-41 -23 -46 -57 -15 -88 40 -40 120 -16 120 37 0 41
-67 73 -105 51z"/>
<path d="M21785 5224 c-31 -31 -5 -114 36 -114 27 0 27 89 0 114 -18 16 -20
16 -36 0z"/>
<path d="M17977 5192 c-24 -26 -21 -68 5 -86 73 -51 161 29 92 83 -33 26 -76
27 -97 3z"/>
<path d="M21869 5188 c-3 -73 15 -119 40 -104 12 8 15 84 5 110 -10 25 -44 20
-45 -6z"/>
<path d="M21947 5193 c-11 -10 -8 -82 3 -104 15 -26 27 -24 38 9 6 15 11 22
11 15 1 -6 6 -24 11 -38 9 -23 13 -25 25 -15 12 10 15 9 15 -4 0 -9 7 -16 15
-16 11 0 15 11 15 41 0 48 -16 83 -36 75 -7 -3 -18 3 -23 12 -8 15 -11 13 -22
-13 l-13 -30 -4 27 c-3 28 -24 52 -35 41z"/>
<path d="M18173 5165 c-31 -22 -31 -68 -1 -89 29 -21 92 -20 112 0 22 21 20
57 -3 78 -27 25 -82 30 -108 11z"/>
<path d="M21682 5078 c-19 -19 -15 -92 6 -111 24 -22 39 -21 52 2 16 31 12 79
-10 101 -23 23 -31 25 -48 8z"/>
<path d="M21791 5056 c-31 -38 -15 -121 24 -121 37 0 42 105 5 125 -12 7 -21
6 -29 -4z"/>
<path d="M17944 5025 c-14 -21 -15 -31 -6 -51 11 -23 47 -44 78 -44 17 0 64
44 64 60 0 6 -11 22 -25 35 -34 35 -88 34 -111 0z"/>
<path d="M21877 5033 c-10 -9 -8 -96 2 -112 5 -8 16 -11 25 -8 16 7 23 78 10
111 -6 16 -26 21 -37 9z"/>
<path d="M18148 5008 c-30 -24 -31 -56 -4 -83 31 -31 74 -33 110 -4 32 26 33
43 1 74 -27 28 -80 34 -107 13z"/>
<path d="M21944 4986 c-11 -59 25 -127 41 -77 9 29 25 26 25 -4 0 -32 27 -34
33 -2 4 19 4 18 6 -5 1 -21 6 -28 21 -28 17 0 20 7 20 43 0 40 -13 67 -32 67
-4 0 -8 -8 -9 -17 -1 -12 -3 -10 -8 6 -9 33 -28 38 -34 9 -3 -21 -5 -21 -16
10 -17 42 -38 41 -47 -2z"/>
<path d="M18773 4910 c-25 -10 -37 -41 -28 -70 8 -24 54 -50 90 -50 31 0 75
41 75 69 0 38 -89 71 -137 51z"/>
<path d="M21782 4878 c-7 -7 -12 -33 -12 -60 0 -36 4 -50 19 -57 41 -23 72 76
35 113 -19 19 -26 20 -42 4z"/>
<path d="M18981 4861 c-27 -27 -27 -43 3 -78 44 -51 146 -28 146 32 0 32 -33
57 -83 62 -36 4 -49 1 -66 -16z"/>
<path d="M18135 4858 c-42 -24 -45 -49 -10 -83 26 -27 72 -33 106 -15 24 13
25 61 2 82 -25 22 -74 30 -98 16z"/>
<path d="M21870 4851 c-25 -49 1 -144 31 -114 16 16 23 88 10 112 -14 26 -27
27 -41 2z"/>
<path d="M21951 4836 c-18 -21 -10 -121 9 -121 11 0 16 15 18 59 3 63 -7 86
-27 62z"/>
<path d="M19212 4833 c-21 -8 -34 -51 -21 -75 14 -27 74 -51 109 -43 65 14 78
80 20 110 -28 15 -82 19 -108 8z"/>
<path d="M18316 4808 c-22 -31 -20 -45 9 -73 44 -44 135 -24 135 30 0 57 -111
90 -144 43z"/>
<path d="M22004 4808 c-8 -25 -6 -99 2 -108 3 -3 12 4 20 14 14 19 14 19 14
-2 0 -15 6 -22 20 -22 17 0 20 7 20 48 0 56 -14 86 -30 62 -8 -13 -11 -11 -16
8 -4 12 -10 22 -14 22 -5 0 -12 -10 -16 -22z"/>
<path d="M18538 4790 c-53 -32 -38 -88 27 -110 76 -25 134 35 83 86 -27 28
-84 40 -110 24z"/>
<path d="M18744 4753 c-21 -15 -32 -48 -23 -71 10 -27 73 -56 105 -48 52 14
71 67 34 101 -21 19 -98 31 -116 18z"/>
<path d="M21660 4720 c-23 -23 -28 -88 -8 -108 23 -23 48 -13 64 23 27 66 -13
128 -56 85z"/>
<path d="M18957 4702 c-41 -45 -9 -96 66 -109 68 -11 104 65 51 106 -34 27
-95 28 -117 3z"/>
<path d="M21759 4689 c-19 -36 -16 -90 6 -106 18 -12 22 -12 38 8 9 12 17 38
17 58 0 58 -38 82 -61 40z"/>
<path d="M21852 4665 c-17 -36 -15 -90 3 -105 20 -17 34 -4 44 41 15 69 -22
119 -47 64z"/>
<path d="M19177 4662 c-28 -31 -22 -70 16 -92 42 -26 80 -25 113 3 22 19 26
29 20 50 -12 51 -115 77 -149 39z"/>
<path d="M21930 4644 c-13 -34 -9 -106 6 -111 17 -6 36 49 32 92 -4 47 -24 57
-38 19z"/>
<path d="M21991 4631 c-14 -26 -14 -111 0 -111 6 0 14 10 17 23 6 20 7 20 12
-8 8 -48 34 -38 44 18 8 40 7 51 -7 65 -16 15 -17 15 -17 -1 0 -9 -4 -17 -10
-17 -5 0 -10 9 -10 19 0 28 -17 35 -29 12z"/>
<path d="M18499 4619 c-11 -11 -18 -27 -15 -36 3 -8 6 -19 6 -24 0 -15 57 -39
94 -39 26 0 40 6 51 24 43 65 -79 132 -136 75z"/>
<path d="M19413 4630 c-45 -18 -41 -80 7 -105 46 -24 95 -19 118 10 26 32 18
62 -22 86 -33 20 -67 23 -103 9z"/>
<path d="M18710 4580 c-27 -27 -25 -46 6 -75 38 -35 107 -35 130 0 20 31 11
61 -26 80 -40 21 -86 19 -110 -5z"/>
<path d="M18927 4542 c-24 -26 -21 -49 8 -77 35 -36 108 -36 131 0 14 22 15
30 4 50 -23 43 -113 60 -143 27z"/>
<path d="M21638 4549 c-10 -5 -20 -25 -24 -43 -13 -71 24 -107 63 -61 28 32
30 76 5 98 -21 20 -22 20 -44 6z"/>
<path d="M21729 4503 c-5 -15 -9 -43 -7 -62 3 -31 7 -36 28 -36 33 0 59 63 42
100 -16 34 -50 33 -63 -2z"/>
<path d="M19152 4504 c-45 -31 -19 -85 52 -105 88 -24 135 65 55 106 -36 19
-79 19 -107 -1z"/>
<path d="M21826 4488 c-20 -28 -21 -92 -3 -107 18 -14 42 12 52 56 13 64 -18
96 -49 51z"/>
<path d="M21901 4459 c-13 -39 -14 -96 -2 -104 18 -10 41 39 41 87 0 57 -22
66 -39 17z"/>
<path d="M18476 4459 c-13 -19 -13 -26 -1 -49 17 -32 33 -40 84 -40 38 0 71
23 71 49 0 6 -12 23 -26 36 -36 33 -106 35 -128 4z"/>
<path d="M19370 4460 c-27 -27 -25 -55 7 -79 51 -41 110 -39 139 3 19 31 7 59
-36 81 -40 21 -86 19 -110 -5z"/>
<path d="M21962 4445 c-15 -32 -16 -105 -2 -105 6 0 13 7 16 15 4 8 10 13 15
10 4 -3 6 -12 2 -20 -3 -10 1 -15 15 -15 29 0 49 87 25 110 -12 11 -17 12 -20
3 -7 -20 -23 -15 -23 7 0 28 -15 25 -28 -5z"/>
<path d="M18680 4421 c-16 -31 -12 -48 15 -70 60 -46 135 -31 135 28 0 38 -36
61 -94 61 -35 0 -48 -5 -56 -19z"/>
<path d="M19603 4420 c-40 -24 -42 -52 -7 -85 53 -49 151 -24 142 36 -3 25
-60 69 -87 69 -9 0 -31 -9 -48 -20z"/>
<path d="M18922 4398 c-26 -13 -39 -54 -25 -77 5 -9 29 -23 52 -31 37 -13 45
-13 69 1 40 22 37 66 -7 96 -37 25 -54 27 -89 11z"/>
<path d="M19845 4392 c-86 -18 -61 -122 29 -122 52 0 76 15 76 49 0 43 -58 83
-105 73z"/>
<path d="M18267 4352 c-24 -26 -21 -47 9 -71 36 -29 109 -29 124 -1 31 58 -88
122 -133 72z"/>
<path d="M19120 4340 c-27 -27 -25 -46 6 -75 55 -51 156 -22 140 40 -12 49
-109 72 -146 35z"/>
<path d="M21702 4338 c-28 -35 -26 -118 3 -118 23 0 56 60 53 95 -3 33 -36 47
-56 23z"/>
<path d="M18481 4328 c-65 -24 -16 -118 61 -118 35 0 70 36 62 63 -13 44 -76
73 -123 55z"/>
<path d="M21785 4300 c-20 -39 -16 -94 7 -98 23 -4 50 50 46 91 -4 44 -32 48
-53 7z"/>
<path d="M19353 4310 c-12 -5 -25 -21 -29 -36 -10 -40 32 -74 91 -74 49 0 75
19 75 55 0 43 -85 77 -137 55z"/>
<path d="M21871 4296 c-6 -7 -14 -37 -18 -65 -5 -41 -3 -51 9 -51 20 0 40 41
42 86 1 40 -14 54 -33 30z"/>
<path d="M18665 4270 c-15 -17 -16 -24 -7 -46 12 -25 65 -54 100 -54 24 0 52
31 52 58 0 53 -107 84 -145 42z"/>
<path d="M21923 4263 c-15 -31 -17 -103 -4 -103 5 0 14 12 19 28 l10 27 1 -33
c1 -48 30 -39 49 16 11 34 11 46 2 57 -16 19 -30 19 -30 -1 0 -8 -4 -13 -9
-10 -5 3 -7 15 -4 26 8 30 -20 25 -34 -7z"/>
<path d="M19585 4273 c-32 -8 -45 -23 -45 -54 0 -33 30 -57 82 -65 27 -5 41
-1 63 18 34 30 28 60 -18 89 -32 19 -45 21 -82 12z"/>
<path d="M18077 4252 c-32 -35 -21 -70 30 -96 36 -18 79 -9 90 19 10 27 -15
65 -52 81 -44 18 -48 18 -68 -4z"/>
<path d="M18888 4240 c-11 -6 -18 -23 -18 -40 0 -53 77 -88 131 -60 25 14 25
61 0 84 -24 21 -90 30 -113 16z"/>
<path d="M19766 4208 c-22 -31 -20 -45 9 -73 33 -34 93 -34 123 -2 28 30 28
42 -3 72 -33 34 -107 35 -129 3z"/>
<path d="M18250 4201 c-15 -29 -13 -40 16 -66 29 -27 91 -34 112 -13 20 20 13
55 -14 77 -35 28 -99 29 -114 2z"/>
<path d="M19110 4197 c-17 -9 -26 -22 -28 -44 -3 -27 2 -34 27 -47 73 -38 161
-2 131 55 -12 22 -60 49 -87 49 -10 0 -29 -6 -43 -13z"/>
<path d="M18454 4165 c-20 -20 -23 -29 -14 -44 16 -32 51 -51 91 -51 90 0 71
93 -24 114 -21 5 -33 1 -53 -19z"/>
<path d="M19982 4174 c-31 -21 -30 -69 2 -89 36 -24 95 -16 118 15 23 32 16
55 -23 75 -36 19 -69 19 -97 -1z"/>
<path d="M21672 4183 c-17 -7 -42 -57 -42 -86 0 -14 7 -31 16 -38 14 -11 20
-10 40 14 38 44 28 125 -14 110z"/>
<path d="M19305 4140 c-29 -32 -10 -71 42 -90 54 -18 94 -6 108 34 8 25 6 31
-18 52 -37 31 -105 33 -132 4z"/>
<path d="M21745 4140 c-11 -12 -19 -37 -19 -63 -1 -35 2 -42 19 -42 14 0 24
13 37 47 26 70 4 104 -37 58z"/>
<path d="M18647 4122 c-28 -31 -5 -72 50 -91 37 -13 44 -13 67 2 54 36 21 95
-56 104 -34 4 -47 1 -61 -15z"/>
<path d="M21817 4111 c-18 -31 -23 -101 -7 -101 5 0 15 9 22 20 18 29 28 25
28 -12 0 -30 0 -31 20 -13 19 18 20 17 20 -3 0 -13 6 -19 17 -18 24 4 52 91
35 108 -9 9 -15 7 -27 -8 -14 -18 -14 -18 -15 9 0 35 -17 35 -33 0 l-12 -27
-5 34 c-6 43 -21 47 -43 11z"/>
<path d="M18069 4101 c-20 -16 -22 -22 -12 -44 15 -32 67 -61 98 -53 47 12 43
76 -5 101 -38 20 -53 19 -81 -4z"/>
<path d="M19535 4108 c-11 -6 -21 -11 -21 -12 -1 -1 -5 -11 -8 -23 -11 -35 35
-73 89 -73 75 0 103 64 43 100 -37 22 -73 25 -103 8z"/>
<path d="M18860 4080 c-25 -25 -25 -41 -1 -67 43 -46 141 -33 141 18 0 56 -98
91 -140 49z"/>
<path d="M18258 4069 c-11 -6 -18 -22 -18 -40 0 -22 8 -34 33 -49 40 -25 69
-25 90 -2 30 33 14 72 -37 92 -34 12 -46 12 -68 -1z"/>
<path d="M19751 4068 c-64 -34 -30 -113 49 -113 32 0 47 6 61 24 24 30 24 34
-3 65 -27 31 -74 41 -107 24z"/>
<path d="M19072 4044 c-44 -31 -19 -85 48 -104 33 -9 80 6 96 31 11 18 -16 57
-51 74 -42 19 -65 19 -93 -1z"/>
<path d="M18462 4033 c-53 -10 -48 -69 8 -98 40 -21 76 -19 93 6 34 48 -29
105 -101 92z"/>
<path d="M19965 4032 c-31 -6 -45 -22 -45 -52 0 -56 75 -87 123 -50 60 48 6
118 -78 102z"/>
<path d="M19315 4012 c-27 -6 -55 -32 -55 -52 0 -24 41 -59 77 -66 58 -12 107
38 80 80 -16 24 -70 44 -102 38z"/>
<path d="M18652 3990 c-52 -22 -36 -82 28 -101 55 -17 90 -1 90 41 0 46 -68
80 -118 60z"/>
<path d="M21680 3958 c-23 -39 -26 -71 -6 -87 11 -9 18 -6 34 14 23 29 37 79
27 95 -12 19 -35 10 -55 -22z"/>
<path d="M18067 3965 c-10 -9 -17 -22 -17 -28 0 -24 31 -56 66 -67 30 -10 38
-9 55 6 25 23 24 46 -4 72 -32 30 -79 38 -100 17z"/>
<path d="M19503 3960 c-12 -5 -25 -21 -29 -36 -6 -22 -2 -32 20 -51 51 -44
136 -23 136 34 0 42 -77 74 -127 53z"/>
<path d="M21771 3957 c-18 -22 -42 -87 -36 -97 9 -15 35 -12 41 5 10 25 25 17
18 -10 -7 -30 12 -34 32 -7 12 16 13 15 14 -5 0 -38 29 -26 50 19 17 38 17 43
2 57 -11 12 -16 13 -20 3 -6 -19 -22 -14 -22 8 0 23 -15 27 -24 5 -7 -18 -28
-20 -25 -2 5 37 -9 48 -30 24z"/>
<path d="M18845 3947 c-25 -19 -22 -67 5 -89 33 -27 96 -24 115 6 19 29 11 53
-24 70 -44 22 -77 26 -96 13z"/>
<path d="M18262 3930 c-31 -13 -37 -35 -18 -66 32 -47 104 -56 126 -15 12 24
5 46 -23 64 -33 21 -60 27 -85 17z"/>
<path d="M19720 3923 c-43 -15 -53 -73 -18 -97 23 -17 85 -21 104 -8 6 4 16
17 23 29 9 18 7 26 -11 47 -23 25 -71 39 -98 29z"/>
<path d="M19040 3888 c-27 -29 -26 -35 11 -69 38 -36 89 -39 120 -8 27 27 21
48 -20 76 -43 29 -84 29 -111 1z"/>
<path d="M18427 3883 c-14 -13 -7 -60 11 -76 43 -40 122 -29 122 17 0 35 -40
66 -86 66 -23 0 -44 -3 -47 -7z"/>
<path d="M19890 3860 c-25 -25 -25 -45 0 -70 47 -47 122 -32 128 27 2 23 -3
35 -20 47 -31 22 -84 20 -108 -4z"/>
<path d="M19247 3845 c-24 -24 -21 -50 9 -74 29 -23 83 -28 115 -11 23 13 26
62 4 80 -26 22 -109 25 -128 5z"/>
<path d="M18616 3828 c-26 -37 20 -88 81 -88 37 0 68 35 57 64 -17 44 -112 61
-138 24z"/>
<path d="M20081 3814 c-27 -34 -26 -40 4 -69 30 -31 73 -32 103 -5 45 43 14
100 -54 100 -23 0 -39 -8 -53 -26z"/>
<path d="M19464 3812 c-6 -4 -16 -17 -22 -28 -27 -51 69 -105 123 -70 52 34
15 106 -54 106 -20 0 -41 -4 -47 -8z"/>
<path d="M18820 3790 c-26 -26 -25 -36 5 -65 27 -27 91 -35 113 -13 21 21 13
56 -17 77 -37 26 -75 27 -101 1z"/>
<path d="M21701 3783 c-26 -32 -36 -67 -26 -90 6 -16 10 -14 32 12 l25 30 -6
-32 c-10 -58 31 -29 55 39 15 44 4 63 -18 31 -20 -30 -31 -29 -26 1 7 35 -12
40 -36 9z"/>
<path d="M18247 3785 c-24 -23 -21 -42 9 -70 47 -43 125 -26 110 23 -16 48
-89 77 -119 47z"/>
<path d="M20273 3785 c-11 -8 -23 -24 -26 -36 -7 -28 33 -69 68 -69 31 0 75
41 75 69 0 43 -74 66 -117 36z"/>
<path d="M19663 3765 c-15 -11 -23 -26 -23 -46 0 -25 6 -33 36 -45 40 -17 74
-13 98 12 21 20 20 37 -1 63 -24 29 -81 37 -110 16z"/>
<path d="M18438 3753 c-30 -8 -34 -52 -7 -78 34 -32 72 -39 99 -17 52 42 -18
113 -92 95z"/>
<path d="M19010 3740 c-15 -29 -4 -58 30 -75 37 -19 70 -19 98 1 29 20 28 39
-3 69 -32 33 -109 36 -125 5z"/>
<path d="M20440 3740 c-30 -30 -26 -66 10 -85 17 -9 40 -13 50 -10 22 7 60 52
60 71 0 43 -84 60 -120 24z"/>
<path d="M19870 3729 c-71 -28 -44 -109 37 -109 29 0 73 30 73 51 0 21 -15 41
-41 54 -32 17 -35 17 -69 4z"/>
<path d="M19217 3702 c-23 -25 -21 -45 6 -70 48 -46 149 -17 132 37 -14 45
-107 67 -138 33z"/>
<path d="M18599 3689 c-9 -17 -7 -26 8 -47 38 -51 117 -54 129 -5 6 21 2 31
-20 50 -36 31 -100 32 -117 2z"/>
<path d="M20036 3674 c-23 -22 -20 -71 3 -84 50 -26 121 3 121 49 0 44 -91 69
-124 35z"/>
<path d="M19430 3668 c-52 -27 -29 -92 36 -104 66 -12 111 49 66 89 -26 23
-72 30 -102 15z"/>
<path d="M18808 3659 c-18 -10 -24 -45 -10 -65 21 -31 97 -45 120 -22 23 23
14 57 -20 78 -36 22 -64 25 -90 9z"/>
<path d="M20210 3630 c-56 -56 30 -122 98 -74 28 20 30 69 3 84 -31 16 -79 12
-101 -10z"/>
<path d="M19618 3619 c-11 -6 -18 -22 -18 -40 0 -24 7 -32 35 -46 41 -20 79
-11 102 24 14 20 13 24 -11 48 -27 27 -76 33 -108 14z"/>
<path d="M18423 3609 c-24 -24 -15 -58 20 -79 39 -25 75 -22 94 6 12 20 12 25
-9 48 -27 31 -86 45 -105 25z"/>
<path d="M18992 3608 c-23 -23 -14 -57 21 -78 39 -24 65 -25 95 -4 29 20 28
48 -4 73 -30 23 -93 28 -112 9z"/>
<path d="M20380 3590 c-27 -27 -22 -60 12 -79 36 -21 79 -5 92 32 14 39 -2 61
-47 65 -26 2 -42 -3 -57 -18z"/>
<path d="M19800 3572 c-31 -25 -21 -66 20 -87 28 -14 34 -14 64 0 72 34 45
105 -39 105 -12 0 -33 -8 -45 -18z"/>
<path d="M18600 3560 c-36 -36 7 -89 72 -90 68 0 73 61 8 95 -39 20 -56 19
-80 -5z"/>
<path d="M19187 3565 c-23 -23 -21 -42 8 -70 26 -27 72 -33 106 -15 23 13 26
62 4 80 -26 21 -99 25 -118 5z"/>
<path d="M20545 3554 c-32 -34 -32 -59 0 -80 42 -27 105 6 105 57 0 52 -65 66
-105 23z"/>
<path d="M19980 3530 c-26 -26 -25 -55 2 -74 48 -34 118 -9 118 42 0 47 -83
69 -120 32z"/>
<path d="M19394 3531 c-41 -18 -38 -68 6 -91 26 -14 83 -13 98 2 18 18 15 53
-6 71 -23 21 -70 29 -98 18z"/>
<path d="M18782 3518 c-32 -32 14 -88 73 -88 39 0 59 21 51 53 -10 40 -95 64
-124 35z"/>
<path d="M20156 3489 c-14 -11 -26 -28 -26 -38 0 -47 82 -69 120 -31 25 25 26
52 2 73 -25 23 -64 21 -96 -4z"/>
<path d="M18428 3483 c-24 -6 -24 -55 0 -76 28 -26 76 -32 95 -12 22 22 21 29
-5 58 -24 26 -60 37 -90 30z"/>
<path d="M18971 3471 c-28 -28 -14 -57 36 -78 46 -19 81 -10 89 23 14 55 -82
98 -125 55z"/>
<path d="M19571 3477 c-7 -9 -11 -28 -9 -44 2 -21 11 -30 41 -42 35 -13 40
-13 65 6 32 24 37 42 19 67 -18 25 -98 34 -116 13z"/>
<path d="M20317 3452 c-10 -10 -17 -31 -17 -46 0 -57 88 -60 119 -4 14 24 14
28 -3 47 -24 26 -77 28 -99 3z"/>
<path d="M19750 3430 c-24 -24 -25 -43 -4 -64 38 -38 101 -28 123 20 24 53
-74 89 -119 44z"/>
<path d="M18587 3433 c-13 -13 -7 -50 11 -66 26 -23 78 -32 97 -17 39 32 -2
90 -63 90 -21 0 -42 -3 -45 -7z"/>
<path d="M19148 3414 c-11 -24 -9 -29 15 -50 34 -29 87 -32 110 -6 38 41 3 82
-70 82 -37 0 -45 -4 -55 -26z"/>
<path d="M20479 3411 c-36 -36 -37 -56 -3 -77 23 -16 28 -16 59 -1 46 22 57
63 25 89 -31 25 -47 23 -81 -11z"/>
<path d="M19926 3391 c-24 -26 -17 -62 16 -80 24 -14 30 -14 62 2 40 19 48 53
20 81 -22 22 -77 20 -98 -3z"/>
<path d="M18772 3388 c-34 -34 4 -88 63 -88 58 0 74 44 29 79 -30 23 -74 27
-92 9z"/>
<path d="M19348 3389 c-45 -26 -3 -93 57 -93 40 0 65 19 65 50 0 43 -76 70
-122 43z"/>
<path d="M20625 3375 c-40 -39 -28 -85 22 -85 29 0 73 42 73 69 0 21 -27 41
-55 41 -9 0 -27 -11 -40 -25z"/>
<path d="M20089 3349 c-26 -26 -21 -59 13 -78 24 -14 30 -14 62 2 29 13 36 22
36 45 0 15 -5 33 -12 40 -19 19 -76 14 -99 -9z"/>
<path d="M18952 3348 c-7 -7 -12 -24 -12 -39 0 -53 105 -75 130 -28 26 47 -78
107 -118 67z"/>
<path d="M19530 3340 c-36 -36 -23 -71 32 -85 75 -19 121 62 52 93 -36 17 -61
15 -84 -8z"/>
<path d="M20246 3311 c-36 -40 7 -100 58 -82 33 13 62 58 50 79 -17 26 -85 28
-108 3z"/>
<path d="M18588 3309 c-26 -15 -22 -44 8 -68 45 -35 104 -23 104 20 0 21 -50
59 -77 59 -10 0 -26 -5 -35 -11z"/>
<path d="M19713 3308 c-48 -23 -36 -81 18 -93 23 -5 38 -2 58 13 34 25 37 46
10 71 -25 23 -52 26 -86 9z"/>
<path d="M19120 3289 c-25 -46 56 -98 109 -70 28 15 27 56 -1 75 -33 24 -95
21 -108 -5z"/>
<path d="M20405 3275 c-33 -32 -32 -62 1 -77 30 -14 67 2 91 39 13 19 12 24
-6 42 -28 28 -56 26 -86 -4z"/>
<path d="M19883 3270 c-23 -10 -40 -51 -28 -70 24 -39 110 -27 121 17 11 42
-44 73 -93 53z"/>
<path d="M18752 3258 c-35 -35 11 -81 75 -76 33 3 38 7 41 30 2 18 -4 31 -20
42 -27 19 -79 21 -96 4z"/>
<path d="M19306 3251 c-32 -36 6 -81 68 -81 26 0 56 28 56 53 0 42 -92 63
-124 28z"/>
<path d="M20541 3236 c-25 -27 -25 -53 1 -70 41 -26 119 42 89 78 -20 24 -64
20 -90 -8z"/>
<path d="M20029 3219 c-27 -27 -21 -60 13 -77 58 -27 125 42 78 80 -29 24 -65
23 -91 -3z"/>
<path d="M18918 3204 c-11 -23 -10 -29 11 -45 47 -38 90 -36 115 5 16 25 -33
66 -80 66 -27 0 -37 -5 -46 -26z"/>
<path d="M19488 3219 c-25 -14 -24 -65 1 -79 47 -25 111 0 111 43 0 36 -72 60
-112 36z"/>
<path d="M20180 3180 c-36 -36 -20 -80 30 -80 33 0 70 34 70 64 0 40 -66 50
-100 16z"/>
<path d="M19096 3171 c-31 -34 10 -81 71 -81 56 0 71 45 27 79 -33 26 -76 27
-98 2z"/>
<path d="M19652 3174 c-27 -18 -28 -45 -4 -67 38 -34 112 -10 112 36 0 20 -37
47 -65 47 -11 0 -31 -7 -43 -16z"/>
<path d="M20322 3137 c-28 -30 -28 -43 2 -62 40 -27 101 10 94 57 -5 34 -65
38 -96 5z"/>
<path d="M18735 3130 c-9 -28 10 -56 46 -69 39 -14 69 1 69 34 0 48 -101 79
-115 35z"/>
<path d="M19290 3143 c-16 -6 -40 -32 -40 -45 0 -18 46 -48 75 -48 31 0 65 25
65 48 0 15 -49 52 -69 51 -9 0 -23 -3 -31 -6z"/>
<path d="M19810 3130 c-38 -38 -16 -80 43 -80 23 0 67 37 67 57 0 18 -36 43
-63 43 -15 0 -36 -9 -47 -20z"/>
<path d="M18900 3090 c-14 -27 1 -55 37 -68 47 -16 90 10 78 47 -12 39 -97 55
-115 21z"/>
<path d="M19440 3090 c-25 -25 -25 -42 -2 -63 41 -37 122 -5 108 41 -6 19 -45
42 -71 42 -8 0 -24 -9 -35 -20z"/>
<path d="M19960 3090 c-26 -26 -25 -46 4 -65 29 -20 71 -11 91 18 19 27 19 32
-1 51 -22 22 -70 20 -94 -4z"/>
<path d="M20122 3068 c-24 -12 -38 -48 -28 -74 10 -26 75 -14 99 18 20 27 20
28 2 48 -20 22 -39 24 -73 8z"/>
<path d="M19078 3060 c-24 -15 -23 -57 1 -70 33 -17 89 -12 101 9 21 40 -59
87 -102 61z"/>
<path d="M19613 3060 c-12 -5 -26 -18 -32 -28 -8 -15 -6 -24 13 -41 29 -28 61
-27 91 3 30 30 24 51 -17 65 -17 6 -31 11 -32 10 -1 0 -11 -4 -23 -9z"/>
<path d="M18736 3027 c-24 -17 -18 -45 16 -70 32 -24 74 -17 83 14 13 41 -61
84 -99 56z"/>
<path d="M19238 3019 c-24 -13 -23 -56 1 -69 44 -23 101 -9 101 26 0 41 -61
67 -102 43z"/>
<path d="M19750 3010 c-48 -48 -2 -93 65 -65 45 18 50 60 9 75 -37 14 -52 12
-74 -10z"/>
<path d="M18880 2975 c-17 -20 9 -60 45 -69 28 -7 75 15 75 34 0 40 -93 67
-120 35z"/>
<path d="M19399 2978 c-25 -21 -29 -45 -10 -62 34 -31 111 -12 111 28 0 32
-73 57 -101 34z"/>
<path d="M19890 2965 c-30 -32 -18 -59 29 -63 57 -6 96 54 52 78 -31 16 -56
12 -81 -15z"/>
<path d="M20060 2953 c-8 -3 -23 -12 -32 -21 -42 -36 -2 -84 52 -62 31 13 59
56 44 69 -13 13 -47 20 -64 14z"/>
<path d="M19035 2931 c-9 -28 4 -49 37 -60 25 -9 36 -8 55 4 12 9 23 21 23 29
0 41 -102 66 -115 27z"/>
<path d="M19540 2930 c-24 -24 -25 -34 -4 -54 32 -33 104 -13 104 29 0 44 -65
60 -100 25z"/>
<path d="M18716 2904 c-14 -36 33 -71 81 -62 24 5 28 35 7 59 -21 24 -79 26
-88 3z"/>
<path d="M19192 2898 c-28 -28 2 -68 52 -68 36 0 56 15 56 42 0 33 -81 53
-108 26z"/>
<path d="M19688 2899 c-27 -15 -23 -57 6 -70 18 -9 31 -8 52 3 32 14 45 55 22
69 -18 12 -59 11 -80 -2z"/>
<path d="M18864 2865 c-15 -37 33 -73 80 -61 53 13 18 76 -43 76 -19 0 -34 -6
-37 -15z"/>
<path d="M19352 2864 c-50 -35 5 -92 63 -66 35 16 35 59 -1 72 -33 13 -36 13
-62 -6z"/>
<path d="M19838 2869 c-28 -16 -41 -48 -27 -65 17 -20 66 -17 89 6 26 26 25
35 -2 54 -26 18 -36 19 -60 5z"/>
<path d="M19016 2835 c-21 -21 -20 -31 4 -55 24 -24 63 -26 84 -4 20 20 20 27
-1 47 -29 25 -68 31 -87 12z"/>
<path d="M19486 2821 c-24 -26 -17 -52 17 -64 54 -18 106 47 58 73 -30 15 -56
12 -75 -9z"/>
<path d="M19950 2820 c-26 -26 -25 -49 2 -59 30 -11 52 -4 79 25 18 19 20 26
9 39 -18 21 -66 19 -90 -5z"/>
<path d="M18710 2805 c-21 -25 12 -65 54 -65 53 0 60 52 9 71 -34 13 -49 11
-63 -6z"/>
<path d="M19168 2799 c-29 -17 -22 -55 12 -69 25 -10 34 -10 55 4 28 19 30 25
13 49 -17 21 -58 30 -80 16z"/>
<path d="M19617 2782 c-23 -26 -21 -41 7 -53 49 -23 115 21 85 57 -16 20 -73
18 -92 -4z"/>
<path d="M18853 2773 c-19 -7 -16 -38 6 -57 24 -22 70 -18 85 7 20 33 -45 69
-91 50z"/>
<path d="M19303 2758 c-21 -28 -23 -37 -7 -52 31 -32 94 -15 94 26 0 32 -67
52 -87 26z"/>
<path d="M19750 2750 c-31 -31 -22 -54 21 -58 69 -6 94 68 26 76 -16 2 -34 -5
-47 -18z"/>
<path d="M18987 2733 c-15 -14 -6 -43 18 -59 46 -30 100 17 63 54 -13 13 -70
17 -81 5z"/>
<path d="M19443 2727 c-47 -21 -32 -69 21 -69 34 0 58 20 54 45 -4 25 -44 38
-75 24z"/>
<path d="M19900 2733 c-26 -10 -50 -35 -50 -53 0 -39 79 -29 104 13 9 14 7 21
-8 33 -21 15 -23 15 -46 7z"/>
<path d="M18703 2704 c-8 -23 9 -47 41 -58 21 -8 30 -6 44 8 16 16 16 18 -11
42 -32 28 -65 31 -74 8z"/>
<path d="M19128 2699 c-21 -12 -23 -40 -6 -57 32 -32 112 6 85 41 -16 21 -57
30 -79 16z"/>
<path d="M19557 2682 c-25 -27 -21 -51 9 -58 37 -9 74 10 74 40 0 38 -54 50
-83 18z"/>
<path d="M18834 2665 c-9 -22 3 -44 28 -54 29 -11 58 4 58 29 0 35 -74 56 -86
25z"/>
<path d="M19245 2648 c-15 -22 -14 -24 6 -40 26 -22 38 -22 67 -2 27 19 28 40
3 54 -31 16 -59 12 -76 -12z"/>
<path d="M19674 2645 c-21 -21 -23 -29 -14 -40 17 -21 53 -19 81 4 20 16 22
23 13 38 -17 28 -50 27 -80 -2z"/>
<path d="M18965 2636 c-23 -16 -14 -42 19 -57 28 -13 54 -6 63 17 12 32 -50
63 -82 40z"/>
<path d="M19383 2630 c-34 -14 -31 -58 4 -66 28 -7 50 2 67 29 18 29 -30 53
-71 37z"/>
<path d="M18701 2616 c-15 -18 -5 -41 24 -54 50 -23 77 21 33 52 -28 20 -42
20 -57 2z"/>
<path d="M19081 2596 c-16 -19 -3 -45 25 -52 45 -12 79 21 54 51 -16 19 -64
19 -79 1z"/>
<path d="M19485 2580 c-15 -16 -15 -22 -5 -35 27 -33 101 1 87 40 -9 22 -60
19 -82 -5z"/>
<path d="M18815 2580 c-10 -17 5 -49 26 -55 48 -16 83 32 40 55 -25 13 -58 13
-66 0z"/>
<path d="M19208 2569 c-43 -25 2 -77 49 -56 29 13 36 33 17 52 -18 17 -41 19
-66 4z"/>
<path d="M18933 2544 c-15 -40 50 -72 78 -38 12 14 10 19 -10 35 -29 23 -60
24 -68 3z"/>
<path d="M19328 2536 c-12 -6 -23 -20 -23 -31 0 -27 50 -33 75 -10 35 32 -6
64 -52 41z"/>
<path d="M18693 2523 c-4 -10 2 -23 17 -35 28 -23 53 -20 58 6 8 37 -62 64
-75 29z"/>
<path d="M19056 2517 c-10 -7 -17 -22 -15 -33 5 -26 60 -32 80 -8 12 14 10 19
-10 35 -28 23 -32 23 -55 6z"/>
<path d="M19433 2508 c-44 -21 -40 -58 6 -58 37 0 69 34 51 55 -14 17 -26 18
-57 3z"/>
<path d="M18813 2503 c-20 -7 -15 -41 7 -53 27 -14 60 -4 60 20 0 19 -45 41
-67 33z"/>
<path d="M19151 2472 c-12 -23 3 -42 35 -42 26 0 48 24 40 45 -8 22 -63 19
-75 -3z"/>
<path d="M18907 2464 c-23 -24 17 -60 54 -49 33 11 21 49 -16 53 -17 2 -34 0
-38 -4z"/>
<path d="M18694 2445 c-9 -21 14 -45 42 -45 30 0 33 34 5 50 -27 14 -41 13
-47 -5z"/>
<path d="M19251 2442 c-8 -15 -7 -23 5 -33 22 -18 69 0 69 26 0 29 -59 34 -74
7z"/>
<path d="M19015 2433 c-21 -21 -19 -32 10 -45 21 -9 29 -9 42 4 9 9 13 23 10
31 -8 21 -45 27 -62 10z"/>
<path d="M18791 2416 c-15 -17 10 -46 40 -46 28 0 36 30 14 46 -24 18 -40 18
-54 0z"/>
<path d="M19346 2411 c-17 -19 -17 -20 3 -31 22 -11 58 0 73 24 20 30 -49 37
-76 7z"/>
<path d="M19118 2409 c-23 -13 -23 -36 1 -49 15 -7 25 -5 43 10 23 20 23 20 4
35 -23 17 -25 18 -48 4z"/>
<path d="M18887 2393 c-22 -21 16 -59 47 -47 21 8 21 40 0 48 -20 8 -39 8 -47
-1z"/>
<path d="M18693 2374 c-6 -17 20 -44 43 -44 22 0 23 29 1 45 -27 19 -36 19
-44 -1z"/>
<path d="M19197 2372 c-20 -22 -8 -45 23 -40 31 4 50 35 30 48 -22 14 -35 12
-53 -8z"/>
<path d="M18974 2355 c-8 -21 4 -35 32 -35 28 0 44 28 23 41 -21 13 -49 11
-55 -6z"/>
<path d="M18777 2346 c-7 -19 12 -36 40 -36 28 0 31 25 4 40 -26 14 -38 13
-44 -4z"/>
<path d="M19066 2335 c-24 -18 -14 -48 15 -43 31 4 49 35 29 48 -19 12 -21 12
-44 -5z"/>
<path d="M18862 2308 c4 -31 53 -34 53 -3 0 15 -8 21 -28 23 -25 3 -28 0 -25
-20z"/>
<path d="M18692 2304 c5 -25 35 -41 49 -27 9 9 9 16 -1 28 -17 21 -52 20 -48
-1z"/>
<path d="M18943 2299 c-17 -17 -4 -39 22 -39 13 0 25 6 28 14 6 15 -11 36 -28
36 -6 0 -16 -5 -22 -11z"/>
<path d="M18770 2275 c0 -7 8 -19 18 -24 15 -9 14 -10 -7 -11 -20 0 -22 -4
-17 -25 4 -14 3 -25 -2 -25 -4 0 -9 -20 -10 -45 -1 -31 2 -45 11 -45 16 0 67
51 67 67 0 6 7 14 15 17 9 3 15 12 13 20 -2 8 6 21 16 29 11 8 16 19 12 25
-10 16 -43 15 -48 0 -3 -8 -9 -4 -17 10 -13 24 -51 30 -51 7z"/>
</g>
</svg>
