<?xml version="1.0" standalone="no"?>
<!DOCTYPE svg PUBLIC "-//W3C//DTD SVG 20010904//EN"
 "http://www.w3.org/TR/2001/REC-SVG-20010904/DTD/svg10.dtd">
<svg version="1.0" xmlns="http://www.w3.org/2000/svg"
 width="588.000000pt" height="600.000000pt" viewBox="0 0 588.000000 600.000000"
 preserveAspectRatio="xMidYMid meet">

<g transform="translate(0.000000,600.000000) scale(0.100000,-0.100000)"
fill="#000000" stroke="none">
<path d="M2508 5697 c-31 -18 -72 -46 -90 -64 -18 -17 -62 -46 -97 -63 -61
-31 -67 -32 -155 -26 -50 3 -115 8 -144 12 -103 12 -177 -28 -257 -138 -81
-111 -167 -158 -291 -158 -60 0 -86 -5 -129 -26 -68 -32 -128 -98 -150 -167
-22 -69 -76 -147 -128 -184 -46 -33 -110 -63 -136 -63 -21 0 -90 -36 -120 -64
-45 -41 -81 -117 -81 -172 0 -131 -91 -273 -207 -323 -32 -15 -90 -76 -110
-118 -15 -32 -18 -59 -15 -178 4 -177 -12 -226 -102 -324 -84 -91 -98 -119
-99 -199 -1 -54 5 -82 31 -144 38 -90 43 -189 15 -260 -19 -48 -73 -141 -85
-146 -4 -2 -8 -40 -8 -83 0 -86 2 -90 99 -224 63 -86 74 -186 36 -327 -15 -57
-16 -77 -7 -122 14 -71 51 -128 110 -170 59 -43 79 -67 117 -136 26 -49 30
-68 35 -170 9 -175 46 -236 185 -300 128 -59 180 -123 216 -262 31 -120 90
-192 182 -222 27 -9 65 -16 84 -16 42 0 139 -47 187 -91 20 -18 50 -59 66 -92
43 -87 71 -119 130 -151 51 -28 58 -29 176 -27 118 1 126 0 188 -29 44 -21 85
-52 132 -100 113 -115 216 -138 343 -77 13 7 67 12 120 12 106 0 139 -11 222
-71 43 -32 111 -56 154 -56 44 0 110 25 164 62 84 56 145 74 241 68 43 -3 85
-9 92 -15 19 -14 91 -33 128 -33 83 0 144 33 230 124 27 29 76 66 107 82 55
27 66 29 196 31 l137 2 54 35 c56 36 78 61 115 136 49 98 174 190 259 190 58
0 131 31 178 76 46 45 84 117 84 159 0 45 55 148 101 191 24 22 78 57 119 77
86 42 96 49 133 98 39 51 48 89 51 204 4 148 36 208 170 318 85 70 117 182 81
289 -37 111 -14 260 51 337 37 43 74 109 74 133 0 9 5 20 10 23 12 8 13 62 1
69 -4 3 -11 22 -14 42 -3 20 -17 50 -29 67 -48 65 -63 115 -62 211 1 80 5 99
33 158 58 123 36 217 -76 334 -86 90 -99 132 -95 314 l3 145 -33 55 c-26 43
-51 67 -115 110 -122 81 -183 174 -183 278 0 65 -28 137 -75 190 -38 44 -102
81 -138 82 -37 0 -128 53 -175 100 -30 30 -56 68 -66 97 -48 134 -85 180 -172
219 -42 18 -72 24 -129 24 -63 0 -85 5 -137 30 -78 38 -93 50 -147 125 -85
116 -146 150 -251 140 -36 -3 -106 -8 -157 -11 -87 -5 -94 -4 -152 25 -33 16
-79 47 -102 68 -51 48 -143 93 -190 93 -22 0 -62 -14 -103 -36 -157 -83 -253
-85 -406 -8 -30 15 -56 31 -58 36 -2 4 -27 8 -55 7 -38 -1 -67 -9 -109 -32z
m645 -292 c409 -45 743 -157 1075 -361 70 -44 220 -149 232 -163 3 -3 32 -28
65 -56 284 -234 550 -607 685 -962 7 -18 16 -33 20 -33 9 0 80 -221 103 -320
102 -436 83 -899 -53 -1320 -283 -870 -1032 -1523 -1920 -1673 -189 -33 -242
-37 -435 -37 -191 0 -244 4 -430 36 -184 32 -509 131 -535 164 -6 7 -93 50
-102 50 -9 0 -189 100 -248 138 -87 56 -175 115 -180 121 -3 3 -36 31 -75 62
-277 222 -531 555 -678 889 -9 19 -25 55 -36 81 -47 108 -102 294 -140 479
-66 325 -51 742 39 1085 43 160 143 419 195 505 12 19 24 42 28 51 12 35 113
188 196 299 93 125 304 344 416 432 186 147 401 275 598 356 86 36 276 100
332 112 22 4 76 16 120 25 121 26 357 52 478 54 59 0 172 -6 250 -14z"/>
<path d="M2645 5329 c-164 -24 -257 -44 -437 -94 -133 -38 -397 -161 -550
-256 -281 -176 -564 -455 -744 -735 -135 -208 -254 -483 -309 -709 -30 -126
-35 -149 -50 -247 -37 -238 -26 -610 24 -823 40 -170 81 -308 118 -395 8 -19
18 -44 23 -55 172 -414 499 -808 880 -1063 47 -31 92 -60 100 -65 8 -4 38 -21
65 -37 49 -30 107 -59 210 -105 106 -47 135 -58 141 -53 3 3 37 -5 75 -18 39
-13 109 -33 157 -44 48 -11 96 -23 107 -25 87 -22 331 -45 471 -45 140 0 381
23 469 45 11 2 58 14 105 25 301 70 603 214 870 414 52 39 161 136 241 216
239 237 377 443 532 790 22 51 73 203 95 290 45 169 82 443 82 603 0 92 -23
337 -39 422 -26 133 -53 240 -87 340 -20 61 -37 119 -38 130 -9 76 -270 526
-346 595 -3 3 -23 28 -45 55 -115 143 -353 355 -525 467 -326 212 -610 316
-1037 378 -85 12 -472 11 -558 -1z m510 -99 c61 -6 133 -15 160 -21 28 -6 82
-18 120 -26 81 -18 252 -69 277 -83 10 -6 23 -10 28 -10 14 0 76 -28 195 -86
151 -75 213 -112 343 -208 74 -54 81 -62 65 -73 -9 -7 -28 -13 -41 -13 -30 0
-157 -59 -215 -99 -23 -16 -66 -53 -95 -81 -29 -29 -56 -50 -59 -46 -4 3 8 27
26 52 63 90 49 133 -32 99 -109 -46 -155 -75 -211 -130 -150 -148 -171 -325
-79 -670 23 -87 44 -157 53 -180 4 -11 33 -101 65 -200 31 -99 63 -198 71
-220 8 -23 14 -48 14 -57 0 -8 14 -58 32 -109 30 -92 31 -99 32 -279 1 -199
-9 -261 -61 -405 -127 -345 -383 -583 -721 -666 -114 -28 -350 -31 -457 -5
-93 23 -164 47 -200 68 -16 9 -52 29 -80 43 -66 35 -189 127 -245 184 -152
155 -254 349 -305 584 -25 111 -24 370 0 487 41 196 162 385 368 576 45 41
168 113 267 157 84 37 277 81 328 75 l27 -3 3 -939 c1 -674 5 -943 13 -953 13
-15 135 -18 157 -4 12 7 14 179 15 982 l2 974 210 3 c239 3 235 1 235 83 0 77
-4 79 -213 80 -100 1 -193 2 -207 3 l-25 1 -6 145 c-4 80 -7 209 -8 287 -1
130 -3 143 -20 153 -27 14 -116 13 -128 -2 -6 -8 -13 -130 -16 -292 -4 -219
-8 -280 -18 -287 -8 -5 -109 -9 -225 -9 -170 0 -214 -3 -223 -14 -7 -8 -11
-38 -9 -72 3 -57 8 -64 53 -79 16 -5 7 -12 -41 -30 -141 -53 -234 -116 -368
-248 -135 -133 -203 -225 -275 -372 -112 -230 -144 -412 -116 -665 17 -157 34
-251 46 -264 5 -6 9 -18 9 -29 0 -10 13 -48 30 -84 16 -35 30 -66 30 -68 0 -3
25 -46 56 -97 69 -114 163 -234 241 -309 54 -53 189 -157 223 -172 8 -4 31
-17 50 -29 19 -11 42 -22 51 -23 15 -1 62 -17 104 -36 36 -15 108 -37 185 -56
59 -14 117 -18 270 -18 171 0 206 3 285 23 182 47 298 96 425 180 113 75 120
81 230 192 112 113 180 209 254 357 73 145 105 244 145 451 28 140 3 558 -49
837 -72 382 -83 520 -55 676 23 128 41 180 102 304 28 56 108 168 147 204 l25
24 48 -43 c211 -192 382 -417 511 -675 104 -207 163 -384 211 -635 51 -261 34
-685 -38 -960 -56 -213 -157 -455 -263 -627 -138 -227 -346 -455 -590 -648
-55 -44 -231 -152 -324 -199 -138 -69 -213 -100 -339 -140 -91 -29 -135 -41
-290 -75 -68 -15 -334 -41 -421 -41 -83 0 -333 25 -414 41 -172 35 -364 92
-465 138 -11 6 -48 22 -83 37 -34 16 -62 31 -62 36 0 4 -24 19 -52 34 -84 43
-106 56 -203 118 -148 96 -296 226 -441 386 -43 48 -206 265 -217 290 -4 8
-21 38 -37 65 -42 68 -117 219 -141 280 -11 28 -24 59 -29 70 -27 60 -75 231
-110 395 -17 76 -40 317 -40 410 0 119 26 359 51 472 34 154 36 160 67 253
166 507 513 944 973 1228 246 151 498 248 804 307 148 28 437 38 630 20z"/>
</g>
</svg>
