<?xml version="1.0" standalone="no"?>
<!DOCTYPE svg PUBLIC "-//W3C//DTD SVG 20010904//EN"
 "http://www.w3.org/TR/2001/REC-SVG-20010904/DTD/svg10.dtd">
<svg version="1.0" xmlns="http://www.w3.org/2000/svg"
 width="2000.000000pt" height="1472.000000pt" viewBox="0 0 2000.000000 1472.000000"
 preserveAspectRatio="xMidYMid meet">

<g transform="translate(0.000000,1472.000000) scale(0.100000,-0.100000)"
fill="#000000" stroke="none">
<path d="M9435 13569 c-258 -159 -471 -292 -472 -297 -2 -4 371 -221 828 -482
457 -261 836 -478 842 -482 9 -6 9 -10 1 -15 -8 -5 -14 -96 -19 -273 -4 -146
-8 -265 -8 -266 -1 0 -605 -349 -1342 -774 -737 -426 -1358 -784 -1381 -797
l-41 -23 -1070 604 c-588 333 -1075 606 -1081 608 -12 3 -1002 -613 -1002
-623 0 -13 5355 -3064 5376 -3063 30 2 991 615 997 636 4 13 -224 145 -1073
625 -799 450 -1075 611 -1067 619 7 6 643 374 1413 817 l1401 807 324 5 c178
3 360 8 404 10 l81 5 849 -475 c467 -261 852 -475 857 -475 4 0 8 -4 8 -9 0
-5 232 124 515 287 318 184 515 303 515 312 0 10 -370 223 -1012 585 l-1013
570 -590 0 -590 0 -9 326 -8 327 -1062 588 c-583 323 -1070 593 -1081 600 -18
12 -68 -17 -490 -277z"/>
<path d="M15303 10605 c0 -33 2 -45 4 -27 2 18 2 45 0 60 -2 15 -4 0 -4 -33z"/>
<path d="M15244 10026 c-11 -8 -230 -138 -489 -291 -258 -153 -477 -286 -487
-296 -9 -11 -22 -19 -29 -19 -6 0 -17 -6 -23 -13 -6 -8 -699 -413 -1541 -902
-841 -489 -1535 -894 -1541 -902 -6 -7 -17 -13 -24 -13 -14 0 -423 -237 -842
-489 l-228 -136 0 -3131 c0 -2877 1 -3132 16 -3138 13 -5 15 -1 12 18 -5 22
24 39 463 271 257 136 475 252 483 258 15 11 18 245 31 2457 8 1345 15 2486
15 2535 l0 91 148 87 c144 84 169 97 158 78 -4 -7 15 -2080 37 -3871 l2 -204
350 -227 c193 -125 353 -228 358 -228 4 -1 7 1122 7 2494 0 2210 2 2495 15
2495 13 0 15 -287 17 -2499 l3 -2499 489 259 c270 142 493 262 497 266 4 5 12
1059 18 2343 6 1284 14 2430 17 2547 l6 212 170 101 c169 100 184 108 174 92
-3 -5 4 -922 16 -2038 16 -1533 24 -2032 33 -2042 6 -7 155 -111 331 -232
l319 -218 3 2494 c2 2208 4 2494 17 2494 13 0 15 -288 15 -2516 0 -1843 3
-2513 11 -2508 6 3 15 0 21 -7 7 -11 8 -10 6 4 -2 13 98 71 477 271 l480 254
7 158 c3 88 11 1205 17 2484 6 1279 14 2627 18 2995 6 669 6 671 -14 672 -11
1 -29 -4 -39 -11z"/>
<path d="M4670 9972 c9 -1211 70 -6287 76 -6289 5 -2 234 -120 509 -262 l500
-258 3 2484 2 2483 31 0 c32 0 384 -199 995 -563 l41 -25 6 -413 c4 -228 16
-1372 28 -2544 16 -1537 25 -2133 33 -2141 19 -20 1027 -536 1033 -530 4 3 1
6 -5 6 -9 0 -12 603 -12 2505 l0 2505 30 0 c22 0 138 -68 438 -257 224 -141
451 -283 505 -316 l97 -59 0 -226 c0 -300 49 -4845 53 -4847 6 -4 952 -490
960 -494 6 -2 8 1119 5 3114 l-5 3117 -99 58 c-176 103 -855 494 -918 528
-281 154 -3184 1809 -3196 1821 -8 9 -179 112 -380 228 -201 116 -447 258
-547 317 l-183 105 0 -47z"/>
<path d="M5820 5636 l0 -2456 323 231 c177 127 328 236 334 243 10 9 9 370 -7
1796 -11 982 -20 1896 -20 2032 l0 246 -307 177 c-170 98 -311 180 -315 182
-5 2 -8 -1101 -8 -2451z"/>
<path d="M7970 4401 c0 -1348 2 -2451 5 -2451 6 0 644 457 662 474 12 11 4
1079 -30 3884 l-2 204 -305 165 c-168 91 -311 167 -317 170 -10 4 -13 -489
-13 -2446z"/>
</g>
</svg>
