<?xml version="1.0" standalone="no"?>
<!DOCTYPE svg PUBLIC "-//W3C//DTD SVG 20010904//EN"
 "http://www.w3.org/TR/2001/REC-SVG-20010904/DTD/svg10.dtd">
<svg version="1.0" xmlns="http://www.w3.org/2000/svg"
 width="2362.000000pt" height="1714.000000pt" viewBox="0 0 2362.000000 1714.000000"
 preserveAspectRatio="xMidYMid meet">

<g transform="translate(0.000000,1714.000000) scale(0.100000,-0.100000)"
fill="#000000" stroke="none">
<path d="M16260 14963 c-28 -49 -80 -134 -115 -190 -35 -56 -69 -119 -76 -140
-25 -77 -257 -392 -556 -758 -364 -443 -408 -496 -494 -594 -143 -163 -396
-367 -689 -554 -210 -133 -652 -360 -895 -458 -38 -15 -83 -34 -100 -42 -16
-8 -70 -30 -120 -50 -49 -19 -121 -48 -160 -63 -89 -35 -279 -102 -325 -115
-19 -5 -51 -16 -70 -23 -19 -7 -66 -23 -105 -35 -38 -12 -117 -36 -175 -55
-58 -18 -141 -43 -185 -55 -44 -12 -109 -31 -145 -41 -36 -10 -94 -26 -130
-35 -205 -53 -500 -254 -775 -530 -195 -195 -402 -449 -584 -717 -35 -52 -48
-57 -89 -31 -395 245 -720 541 -1143 1038 -252 298 -659 863 -814 1132 -42 72
-112 140 -259 250 -394 296 -791 428 -1181 392 -130 -12 -319 -59 -393 -99 -9
-4 -42 -20 -72 -35 -30 -15 -62 -33 -71 -41 -8 -8 -19 -14 -22 -14 -8 0 -71
-45 -113 -80 -53 -45 -331 -367 -679 -785 -55 -66 -138 -165 -186 -220 -170
-198 -244 -311 -286 -439 -26 -79 -29 -121 -11 -163 6 -15 14 -55 17 -88 l6
-60 49 -3 c47 -3 50 -2 110 56 82 79 160 117 266 132 46 6 95 8 109 5 14 -4
91 -9 169 -10 149 -4 213 -17 322 -68 242 -111 506 -441 679 -847 18 -41 36
-84 41 -95 29 -65 55 -139 105 -295 91 -281 95 -296 95 -312 0 -8 9 -44 19
-79 10 -35 29 -109 41 -164 12 -55 28 -127 35 -160 20 -90 52 -287 65 -400 29
-248 33 -280 81 -525 44 -226 83 -387 159 -655 17 -60 37 -132 45 -160 7 -27
39 -126 69 -218 67 -201 66 -211 -15 -158 -37 24 -137 88 -289 186 -19 12 -75
49 -125 80 -49 32 -119 77 -155 100 -36 23 -110 70 -165 105 -103 65 -206 131
-355 228 -47 30 -101 65 -120 77 -19 12 -73 47 -120 77 -156 101 -254 164
-355 228 -411 259 -711 485 -985 742 -375 352 -636 701 -799 1071 -12 26 -30
67 -41 91 -11 24 -20 48 -20 54 0 6 -6 26 -14 44 -14 33 -40 117 -70 233 -61
230 -74 574 -31 825 34 201 59 288 129 460 70 173 95 210 286 416 152 164 287
288 450 415 102 80 324 230 385 261 17 8 86 44 155 80 108 56 190 92 350 153
41 16 137 46 235 74 395 114 883 150 1369 101 115 -12 212 -23 215 -25 4 -2
42 -8 86 -14 297 -40 778 -176 1195 -336 94 -37 248 -100 325 -135 22 -10 74
-33 115 -51 199 -90 481 -238 735 -385 262 -153 555 -342 714 -462 131 -98
144 -102 121 -30 -38 120 -142 305 -264 468 -92 124 -378 411 -531 532 -126
101 -343 258 -410 298 -22 13 -89 56 -150 95 -190 124 -395 240 -620 354 -99
50 -141 70 -300 141 -22 10 -89 37 -150 60 -60 23 -119 46 -130 51 -27 11
-129 46 -185 63 -133 41 -162 50 -245 73 -49 14 -108 29 -130 33 -22 4 -71 15
-110 24 -38 9 -90 21 -115 27 -42 10 -133 25 -295 48 -483 70 -1161 51 -1605
-44 -36 -8 -83 -17 -105 -20 -22 -3 -62 -12 -90 -20 -27 -8 -70 -18 -95 -24
-25 -5 -79 -19 -120 -30 -41 -12 -97 -28 -125 -35 -27 -8 -63 -19 -80 -25 -16
-6 -64 -22 -105 -36 -114 -37 -262 -94 -292 -110 -14 -8 -31 -15 -36 -15 -31
0 -442 -205 -567 -282 -191 -119 -584 -513 -787 -790 -253 -345 -428 -720
-517 -1108 -47 -204 -56 -303 -56 -595 0 -244 3 -300 24 -435 13 -85 25 -158
27 -161 2 -4 10 -35 18 -70 44 -203 126 -457 201 -624 39 -86 150 -309 186
-375 68 -123 56 -103 158 -260 84 -129 254 -353 347 -455 172 -191 639 -586
980 -830 23 -16 88 -64 145 -105 57 -41 113 -82 125 -90 12 -8 64 -45 116 -81
51 -37 134 -94 183 -129 105 -72 689 -460 820 -544 50 -32 133 -85 186 -119
52 -34 124 -80 159 -102 265 -167 271 -171 412 -258 38 -23 222 -136 410 -251
189 -115 354 -216 368 -225 14 -9 33 -20 42 -26 125 -74 277 -164 303 -180 33
-21 315 -187 813 -478 158 -92 298 -173 312 -179 14 -7 32 -17 40 -24 8 -6 47
-28 85 -49 233 -126 414 -246 555 -369 383 -335 647 -723 783 -1151 94 -298
116 -438 116 -751 1 -177 2 -192 21 -209 10 -9 25 -15 32 -12 48 20 146 120
263 267 75 94 141 168 146 165 13 -8 11 -127 -2 -162 -42 -110 -88 -348 -101
-527 -27 -367 43 -667 202 -868 33 -42 496 -484 541 -517 17 -12 20 -10 28 12
20 52 4 198 -51 479 -36 182 -11 351 99 677 41 121 79 188 250 441 157 231
203 283 366 417 72 60 208 176 302 258 300 262 604 517 685 572 50 35 209 133
215 133 2 0 27 14 55 30 28 17 59 30 69 30 10 0 34 -16 54 -35 21 -20 37 -30
37 -23 1 7 8 0 17 -17 9 -16 55 -75 102 -129 220 -254 505 -614 908 -1149 70
-92 132 -166 137 -164 22 7 39 64 57 191 10 72 19 165 19 206 0 93 -33 395
-55 510 -35 183 -105 458 -141 553 -12 33 -12 38 2 44 22 8 118 -43 199 -108
200 -159 435 -476 668 -899 88 -161 211 -403 276 -542 81 -176 142 -311 176
-393 7 -16 22 -50 33 -75 11 -25 32 -74 47 -110 14 -36 32 -78 39 -95 7 -16
30 -73 51 -125 20 -52 45 -116 56 -142 10 -26 19 -53 19 -61 0 -8 7 -20 15
-27 21 -18 41 2 49 48 4 20 15 73 26 117 29 127 49 226 55 275 3 25 12 95 21
155 26 175 24 635 -5 825 -49 331 -151 656 -278 883 -18 33 -33 61 -33 63 0 2
-25 42 -56 88 -165 248 103 -11 330 -318 69 -94 150 -213 261 -386 49 -76 123
-198 152 -250 44 -81 57 -103 69 -120 6 -8 29 -49 51 -90 22 -41 54 -100 71
-131 17 -31 54 -102 82 -159 29 -56 59 -104 67 -107 20 -8 37 11 73 86 70 141
105 283 127 509 15 162 15 189 0 393 -16 208 -30 314 -63 458 -8 35 -12 67 -8
70 7 8 42 -15 120 -82 128 -108 288 -204 439 -261 39 -15 86 -34 105 -41 41
-17 131 -40 255 -66 185 -40 577 -43 725 -5 202 52 439 135 462 163 9 12 8 35
-5 111 -9 52 -20 98 -26 101 -5 3 -49 14 -98 25 -143 29 -400 107 -553 166
-30 12 -71 27 -91 35 -20 7 -45 18 -55 23 -11 6 -48 22 -84 38 -176 74 -504
237 -610 303 -51 31 -151 114 -161 132 -12 22 16 93 47 121 10 9 75 35 142 58
68 23 135 46 148 52 25 12 31 36 14 66 -5 9 -19 41 -31 70 -15 36 -28 54 -43
57 -11 2 -57 11 -101 20 -44 10 -107 26 -141 36 -33 10 -68 19 -77 19 -9 0
-31 6 -49 14 -18 8 -64 24 -103 36 -73 22 -106 34 -265 95 -156 60 -275 109
-420 172 -19 9 -48 21 -65 28 -208 89 -481 221 -491 237 -5 7 -20 19 -34 26
-23 11 -23 12 -2 6 13 -3 28 -1 35 4 7 5 53 31 102 57 50 27 108 59 130 72 22
12 47 26 55 29 36 16 625 362 725 426 274 174 482 313 730 487 234 163 635
478 875 686 145 126 480 437 519 482 13 16 78 84 144 153 208 216 387 434 542
660 243 354 299 446 408 670 65 134 97 209 162 380 79 206 149 516 186 818 19
152 21 210 16 475 -4 305 -10 365 -58 632 -20 111 -33 167 -71 305 -23 81 -55
183 -68 215 -142 337 -300 612 -518 898 -385 505 -929 925 -1532 1183 -58 25
-114 49 -125 54 -32 15 -183 70 -275 99 -367 119 -632 177 -1050 227 -183 22
-263 26 -535 28 l-320 3 -9 29 c-5 16 -12 38 -16 49 -4 11 -18 56 -30 100 -12
44 -28 98 -35 120 -7 22 -18 62 -25 90 -24 102 -44 99 -110 -12z m-54 -1017
c17 -13 20 -32 26 -183 4 -92 12 -193 17 -223 12 -71 13 -256 1 -345 -5 -38
-14 -106 -19 -150 -28 -214 -116 -482 -237 -722 -121 -238 -286 -466 -508
-703 -250 -267 -401 -505 -450 -712 -20 -86 -20 -129 2 -201 32 -102 98 -174
212 -232 52 -26 161 -55 209 -55 49 0 181 29 228 51 23 10 45 19 49 19 4 0 43
24 88 53 91 59 133 80 147 72 14 -9 -3 -35 -115 -178 -145 -186 -257 -300
-424 -431 -141 -111 -257 -204 -482 -387 -175 -143 -428 -331 -560 -416 -205
-134 -200 -129 -248 -226 -54 -110 -85 -246 -72 -320 26 -152 95 -242 248
-325 76 -42 260 -40 411 4 126 37 299 100 315 115 6 5 16 9 24 9 7 0 58 23
113 50 138 70 161 66 93 -17 -60 -73 -332 -223 -534 -294 -141 -50 -247 -69
-383 -69 -240 0 -411 -52 -558 -167 -93 -73 -144 -155 -181 -288 -7 -22 -11
-104 -11 -182 2 -168 6 -179 102 -287 587 -662 941 -1016 1437 -1442 181 -155
628 -487 806 -599 121 -76 318 -195 323 -195 3 0 52 -26 108 -59 152 -87 393
-201 552 -261 84 -32 90 -35 93 -56 2 -14 -7 -25 -30 -36 -90 -43 -181 -142
-242 -265 -22 -44 -43 -73 -52 -73 -9 0 -59 45 -111 100 -174 183 -340 298
-528 367 -60 22 -88 25 -195 26 -113 1 -130 -1 -175 -23 -124 -61 -275 -269
-275 -380 0 -69 -19 -75 -73 -23 -96 92 -289 231 -412 297 -124 67 -191 88
-281 90 l-81 1 -71 -58 c-124 -100 -188 -203 -199 -322 -3 -36 -10 -65 -15
-65 -5 0 -88 70 -186 156 -170 150 -393 324 -552 431 -81 54 -226 145 -250
156 -8 4 -35 19 -60 33 -150 86 -369 182 -530 232 -259 80 -1025 165 -1315
146 -276 -18 -501 4 -825 82 -217 51 -558 164 -678 223 -9 5 -71 34 -137 66
-314 151 -582 341 -825 585 -216 216 -375 431 -513 695 -53 103 -206 422 -231
485 -15 36 -31 74 -37 85 -5 11 -14 34 -19 50 -5 17 -21 62 -35 100 -15 39
-33 90 -40 115 -65 213 -98 325 -110 380 -9 36 -24 103 -35 150 -19 82 -24
105 -55 275 -27 146 -55 342 -55 381 0 48 -35 317 -56 434 -9 47 -18 99 -20
115 -12 76 -56 275 -91 410 -37 146 -118 406 -163 525 -12 30 -27 71 -35 90
-42 111 -131 295 -208 430 -259 454 -590 763 -972 909 -119 45 -109 38 -90 69
10 15 64 72 120 127 91 89 122 130 218 282 48 76 195 173 327 217 152 50 249
66 391 66 183 0 326 -35 494 -122 97 -50 144 -81 255 -169 135 -107 219 -201
326 -364 618 -940 1387 -1747 2022 -2122 87 -51 98 -55 190 -65 91 -9 220 -6
269 8 12 3 34 24 49 45 15 22 35 39 45 39 17 0 19 -8 19 -74 0 -58 -3 -75 -16
-80 -9 -3 -355 -6 -770 -6 l-754 0 -4 -22 c-3 -13 -7 -102 -10 -198 -3 -96
-10 -289 -17 -428 -7 -138 -9 -255 -5 -260 4 -4 359 -9 789 -12 l782 -5 3
-1659 c1 -1206 5 -1663 13 -1673 9 -10 85 -13 393 -13 209 0 387 4 393 8 10 6
13 356 15 1673 l3 1664 665 5 665 5 65 35 65 35 3 423 2 422 -723 0 c-549 0
-726 3 -735 12 -9 9 -12 152 -12 583 0 495 2 573 15 592 34 49 326 216 444
254 14 4 58 20 96 34 80 30 191 65 285 90 129 34 263 74 355 106 17 6 50 17
75 24 53 16 246 82 275 94 11 5 45 17 75 28 92 34 273 103 305 117 17 8 80 35
140 61 557 240 1055 566 1457 954 171 165 280 288 409 462 421 566 543 729
549 729 3 0 15 -6 26 -14z m624 -420 c296 -49 590 -120 840 -203 645 -214
1126 -551 1428 -1003 31 -46 62 -94 68 -105 54 -98 99 -189 120 -244 14 -36
33 -86 43 -111 10 -25 26 -74 36 -110 9 -36 24 -87 31 -115 20 -70 43 -202 55
-320 17 -157 5 -622 -19 -770 -34 -200 -76 -395 -107 -495 -43 -136 -77 -237
-99 -292 -13 -35 -36 -103 -51 -151 -178 -572 -994 -1340 -2350 -2212 -278
-179 -481 -303 -800 -488 -172 -101 -202 -118 -305 -175 -25 -14 -74 -42 -110
-62 -36 -20 -70 -39 -75 -41 -6 -2 -46 -24 -89 -48 -43 -24 -114 -58 -159 -77
-44 -18 -89 -40 -99 -48 -25 -22 -49 -20 -100 6 -147 74 -433 370 -754 778
-158 201 -184 236 -184 246 0 6 72 15 168 22 288 20 494 73 740 188 40 19 74
34 77 34 12 0 217 124 310 188 339 233 660 567 873 908 61 98 141 250 183 347
17 40 37 86 45 104 8 17 14 36 14 42 0 6 6 25 14 43 62 144 124 457 133 680 8
193 6 194 -125 65 -226 -222 -470 -411 -775 -599 -201 -124 -237 -142 -237
-120 0 5 30 33 67 62 454 364 809 783 1021 1205 85 169 108 224 160 380 88
264 125 505 114 743 -3 63 -6 72 -22 72 -11 0 -24 -9 -30 -19 -16 -31 -154
-137 -320 -246 -85 -56 -162 -105 -170 -109 -8 -4 -32 -17 -52 -29 -100 -60
-195 -114 -208 -120 -8 -4 -35 -19 -60 -33 -40 -23 -164 -63 -197 -64 -27 0
-11 28 48 85 98 96 233 272 316 410 33 56 126 243 149 302 14 38 32 82 40 98
52 117 149 472 174 639 6 38 13 72 15 76 13 21 49 399 50 535 2 88 3 164 4
169 0 5 16 6 34 3 17 -3 75 -13 127 -21z m-4940 -8730 c206 -25 342 -45 490
-72 150 -28 200 -43 200 -59 0 -5 -29 -29 -63 -52 -260 -176 -724 -681 -1136
-1236 -88 -118 -97 -127 -128 -127 -37 0 -42 15 -22 67 6 15 19 80 30 143 36
222 21 503 -41 747 -45 174 -150 435 -223 549 -20 32 -23 44 -14 54 18 18 730
8 907 -14z m1810 -621 c-19 -19 -38 -35 -44 -35 -6 0 7 18 29 40 21 22 41 37
44 35 2 -3 -11 -21 -29 -40z"/>
<path d="M16033 14628 c-19 -23 -105 -45 -258 -68 -77 -11 -176 -27 -220 -36
-204 -40 -420 -87 -500 -110 -27 -7 -86 -23 -130 -35 -44 -11 -98 -27 -120
-34 -22 -7 -80 -25 -130 -40 -49 -14 -101 -31 -115 -36 -13 -6 -64 -24 -112
-40 -49 -16 -96 -33 -106 -38 -9 -5 -44 -19 -77 -31 -33 -13 -73 -29 -90 -36
-16 -7 -84 -36 -150 -64 -225 -96 -596 -289 -770 -400 -13 -8 -45 -28 -72 -44
-79 -48 -321 -214 -428 -294 -421 -316 -851 -734 -1127 -1097 -160 -210 -158
-207 -158 -301 0 -46 4 -85 9 -89 5 -3 59 27 120 67 60 40 160 105 221 143 62
39 142 94 179 123 36 30 124 100 194 157 113 90 280 208 387 273 191 115 330
191 460 255 192 92 288 137 297 137 4 0 25 8 47 18 62 28 135 58 196 81 30 11
84 31 120 45 36 13 110 38 165 56 55 18 116 38 135 45 19 7 69 23 110 35 41
12 98 29 125 37 28 9 66 19 85 23 19 4 87 21 150 38 103 26 178 44 375 87 33
7 80 16 105 20 25 3 80 13 122 22 58 12 81 13 91 4 11 -9 76 65 329 372 309
376 563 720 556 754 -3 14 -4 14 -15 1z"/>
</g>
</svg>
