<?xml version="1.0" standalone="no"?>
<!DOCTYPE svg PUBLIC "-//W3C//DTD SVG 20010904//EN"
 "http://www.w3.org/TR/2001/REC-SVG-20010904/DTD/svg10.dtd">
<svg version="1.0" xmlns="http://www.w3.org/2000/svg"
 width="433.000000pt" height="284.000000pt" viewBox="0 0 433.000000 284.000000"
 preserveAspectRatio="xMidYMid meet">

<g transform="translate(0.000000,284.000000) scale(0.100000,-0.100000)"
fill="#000000" stroke="none">
<path d="M2130 2679 c-61 -24 -84 -82 -56 -137 56 -108 222 -33 176 79 -21 49
-75 75 -120 58z m50 -74 c17 -20 5 -45 -20 -45 -11 0 -23 7 -26 15 -6 15 11
45 26 45 4 0 13 -7 20 -15z"/>
<path d="M2095 2424 c-282 -43 -485 -273 -485 -549 0 -135 53 -273 142 -370
62 -68 113 -104 196 -139 204 -86 438 -39 598 119 337 335 123 905 -352 938
-38 3 -82 3 -99 1z m137 -72 c14 -6 9 -12 -27 -31 l-45 -24 -45 24 c-53 28
-42 38 45 38 30 0 63 -4 72 -7z m-187 -73 c30 -11 55 -23 55 -26 0 -3 -16 -27
-36 -54 -43 -59 -74 -143 -74 -204 0 -25 -4 -45 -9 -45 -6 0 -27 10 -48 22
-53 32 -143 32 -196 0 -21 -12 -41 -22 -44 -22 -3 0 -3 17 -1 38 17 124 176
312 264 312 18 0 58 -9 89 -21z m388 -8 c66 -45 125 -116 163 -194 31 -66 44
-127 27 -127 -5 0 -17 7 -28 16 -55 41 -157 41 -219 -1 -39 -26 -46 -20 -46
41 0 50 -34 137 -74 193 -40 55 -38 60 30 85 62 23 100 19 147 -13z m-240
-103 c42 -56 58 -97 73 -186 18 -107 18 -107 0 -215 -15 -88 -50 -170 -89
-204 -19 -17 -20 -17 -48 17 -35 42 -69 127 -70 178 0 20 -6 55 -13 77 -9 32
-9 50 1 90 7 27 13 65 13 85 1 55 71 190 100 190 5 0 20 -15 33 -32z m-274
-267 c37 -27 33 -37 -26 -63 -51 -23 -90 -19 -142 13 -29 17 -32 22 -20 34 50
49 131 56 188 16z m652 -1 l32 -23 -23 -19 c-12 -10 -40 -23 -61 -30 -34 -10
-46 -9 -87 8 -58 24 -62 48 -12 76 44 24 106 19 151 -12z m-781 -139 c54 -12
122 1 163 30 31 23 33 21 41 -58 6 -63 36 -134 76 -185 17 -20 30 -39 30 -42
0 -12 -83 -47 -124 -52 -55 -8 -89 11 -167 93 -63 67 -109 153 -117 220 l-5
46 29 -21 c16 -12 49 -26 74 -31z m651 0 c53 -12 122 1 162 30 l27 20 0 -33
c0 -81 -116 -253 -207 -309 -41 -26 -100 -21 -164 11 l-40 21 36 49 c41 56 75
143 75 194 0 19 3 41 6 50 5 14 9 14 34 -4 15 -10 47 -24 71 -29z m-227 -335
c40 -21 43 -25 23 -30 -29 -8 -131 -8 -152 0 -13 5 -8 12 22 29 49 30 53 30
107 1z"/>
<path d="M1430 1937 c-14 -7 -33 -29 -43 -49 -16 -33 -17 -40 -3 -72 42 -101
186 -71 186 39 0 37 -16 62 -50 80 -35 18 -57 19 -90 2z m68 -85 c4 -28 -24
-40 -45 -19 -14 13 -14 19 -3 32 18 22 44 15 48 -13z"/>
<path d="M2798 1935 c-104 -58 -27 -220 83 -175 40 17 59 46 59 92 0 73 -79
119 -142 83z m67 -85 c0 -29 -32 -41 -41 -16 -9 24 4 48 23 44 12 -2 18 -12
18 -28z"/>
<path d="M2107 1249 c-9 -5 -24 -24 -33 -41 -42 -81 38 -168 122 -133 100 42
66 186 -43 185 -15 0 -36 -5 -46 -11z m80 -75 c3 -8 -2 -23 -11 -32 -15 -15
-17 -15 -32 0 -21 21 -11 48 16 48 11 0 23 -7 27 -16z"/>
<path d="M1173 881 c-45 -3 -84 -9 -88 -12 -3 -4 11 -15 32 -25 l38 -19 3
-268 2 -269 -30 -11 c-16 -6 -30 -15 -30 -19 0 -4 56 -8 125 -8 127 0 149 7
98 32 l-28 13 -3 298 c-2 275 -4 297 -20 295 -9 -1 -54 -4 -99 -7z"/>
<path d="M1490 883 c-36 -2 -75 -5 -87 -8 -25 -6 -32 -25 -9 -25 7 0 25 -9 40
-21 l26 -20 0 -254 c0 -217 -2 -256 -16 -269 -8 -9 -22 -16 -30 -16 -8 0 -14
-4 -14 -10 0 -6 48 -10 125 -10 69 0 125 3 125 8 0 4 -14 15 -30 24 l-30 17
-2 293 c-3 252 -5 293 -18 294 -8 0 -44 -1 -80 -3z"/>
<path d="M2836 869 c-53 -41 -18 -129 51 -129 32 0 73 42 73 75 0 33 -41 75
-73 75 -13 0 -36 -9 -51 -21z"/>
<path d="M2393 840 c-115 -24 -178 -104 -159 -205 8 -40 46 -89 85 -110 15 -7
65 -26 111 -41 101 -32 140 -65 140 -118 0 -22 -8 -45 -23 -62 -20 -23 -34
-28 -83 -31 -52 -4 -64 -1 -105 25 -30 20 -60 51 -84 91 -38 61 -73 83 -61 39
3 -13 6 -58 6 -100 0 -81 7 -93 39 -64 14 13 24 12 75 -5 111 -38 237 -24 302
33 45 40 64 77 64 128 0 88 -48 135 -187 181 -102 34 -163 77 -163 116 0 37
38 82 77 92 78 21 150 -25 193 -121 12 -28 28 -48 36 -48 14 0 15 14 12 89 -1
49 -7 93 -11 97 -4 5 -17 3 -28 -4 -17 -11 -29 -10 -67 2 -65 21 -120 26 -169
16z"/>
<path d="M10 750 c0 -61 3 -80 14 -80 7 0 20 14 27 32 7 18 26 47 42 65 26 30
34 33 83 33 l54 0 0 -232 c0 -128 -3 -243 -6 -256 -5 -16 -18 -25 -50 -33 -24
-6 -44 -15 -44 -20 0 -12 317 -12 325 1 3 5 -12 14 -35 20 -22 6 -44 19 -50
30 -7 12 -9 106 -8 252 l3 233 49 3 c41 3 53 -1 76 -23 15 -15 36 -44 45 -66
30 -65 45 -51 45 41 l0 80 -285 0 -285 0 0 -80z"/>
<path d="M3560 715 l0 -65 -35 0 c-24 0 -35 -5 -35 -15 0 -10 11 -15 35 -15
l35 0 0 -145 c0 -206 17 -238 125 -237 55 0 125 24 125 41 0 6 -18 11 -40 11
-27 0 -47 7 -60 20 -18 18 -20 33 -20 165 l0 144 55 3 c30 2 55 8 55 13 0 6
-25 11 -55 13 l-55 3 0 64 0 65 -65 0 -65 0 0 -65z"/>
<path d="M777 656 c-105 -28 -171 -140 -148 -248 17 -76 44 -113 105 -143 77
-38 167 -37 237 2 53 29 85 64 74 83 -4 6 -21 -2 -45 -21 -99 -80 -224 -25
-232 101 l-3 45 143 3 143 3 -7 37 c-15 82 -55 124 -135 141 -61 13 -71 13
-132 -3z m110 -46 c7 -14 13 -44 13 -67 l0 -43 -65 0 -65 0 0 29 c0 39 17 83
38 99 26 19 65 11 79 -18z"/>
<path d="M1837 656 c-67 -18 -101 -46 -105 -84 -5 -53 58 -80 107 -46 20 14
22 22 16 60 -6 41 -4 45 21 54 56 22 97 -19 92 -92 -3 -42 -4 -43 -58 -61
-171 -58 -200 -80 -200 -148 0 -48 32 -87 80 -98 43 -10 121 8 150 34 20 18
21 18 49 -9 30 -28 82 -36 149 -21 37 8 43 25 8 25 -45 0 -51 22 -51 174 0
158 -9 185 -68 206 -52 18 -138 21 -190 6z m129 -252 c1 -70 -8 -92 -43 -105
-55 -21 -99 42 -69 100 16 30 81 73 101 67 6 -2 10 -29 11 -62z"/>
<path d="M2880 663 c-78 -4 -120 -12 -120 -23 0 -6 7 -10 15 -10 8 0 24 -9 35
-20 18 -18 20 -33 20 -171 l0 -151 -30 -11 c-16 -6 -30 -15 -30 -19 0 -4 56
-8 125 -8 127 0 149 7 98 32 l-28 13 -5 184 c-3 112 -9 185 -15 186 -5 0 -35
0 -65 -2z"/>
<path d="M3205 661 c-97 -24 -141 -102 -101 -180 19 -35 49 -55 113 -74 90
-27 113 -43 113 -81 0 -43 -26 -66 -76 -66 -52 0 -99 30 -132 85 -15 24 -30
45 -34 45 -11 0 -10 -148 1 -155 6 -3 14 2 19 11 8 14 14 15 46 4 46 -15 154
-16 200 0 73 24 112 107 82 172 -19 40 -52 61 -136 87 -34 11 -70 27 -81 37
-42 38 -7 98 56 98 41 0 81 -27 114 -77 13 -20 27 -34 32 -32 7 5 1 125 -7
134 -2 2 -10 -2 -18 -8 -11 -9 -29 -10 -72 -2 -64 12 -75 12 -119 2z"/>
<path d="M4002 660 c-57 -12 -111 -46 -118 -75 -13 -52 41 -88 98 -64 28 11
29 15 26 62 -3 48 -1 51 26 60 22 7 33 5 55 -10 22 -17 26 -29 29 -74 l3 -54
-102 -34 c-136 -45 -175 -86 -153 -163 24 -82 139 -95 235 -27 12 9 21 6 42
-15 23 -22 46 -30 92 -28 31 1 85 14 85 20 0 4 -15 12 -32 17 l-33 10 -5 150
c-5 161 -12 185 -58 209 -37 19 -136 27 -190 16z m118 -257 c0 -78 -16 -103
-66 -103 -82 0 -67 117 20 155 17 7 34 14 39 14 4 1 7 -29 7 -66z"/>
</g>
</svg>
