<?xml version="1.0" standalone="no"?>
<!DOCTYPE svg PUBLIC "-//W3C//DTD SVG 20010904//EN"
 "http://www.w3.org/TR/2001/REC-SVG-20010904/DTD/svg10.dtd">
<svg version="1.0" xmlns="http://www.w3.org/2000/svg"
 width="2094.000000pt" height="1002.000000pt" viewBox="0 0 2094.000000 1002.000000"
 preserveAspectRatio="xMidYMid meet">

<g transform="translate(0.000000,1002.000000) scale(0.100000,-0.100000)"
fill="#000000" stroke="none">
<path d="M5315 8754 c-237 -17 -593 -79 -792 -140 -174 -52 -514 -186 -546
-214 -11 -10 436 -18 1613 -30 514 -5 1053 -12 1198 -15 155 -4 262 -3 262 3
0 5 -48 32 -107 60 -369 175 -726 274 -1138 317 -159 17 -391 25 -490 19z"/>
<path d="M3260 8040 c-699 -5 -1032 -10 -1070 -18 -56 -12 -159 -61 -195 -93
-11 -9 -34 -21 -51 -26 -38 -10 -91 -55 -136 -116 -18 -24 -54 -69 -80 -99
-35 -40 -50 -69 -62 -113 -8 -33 -25 -87 -37 -120 -33 -88 -39 -268 -11 -345
11 -30 26 -71 32 -90 7 -19 29 -70 51 -112 21 -42 39 -83 39 -91 0 -9 18 -34
40 -57 22 -23 40 -50 40 -61 0 -11 14 -38 30 -61 17 -22 30 -45 30 -51 0 -5
15 -30 34 -56 32 -44 44 -65 83 -141 27 -52 53 -91 90 -133 18 -20 33 -43 33
-50 0 -8 9 -22 19 -31 10 -10 22 -32 25 -50 4 -19 17 -45 30 -59 13 -14 29
-42 36 -62 6 -19 16 -35 21 -35 5 0 18 -20 29 -44 10 -24 25 -48 32 -53 8 -4
20 -27 26 -50 7 -24 17 -43 22 -43 5 0 18 -20 29 -43 11 -24 27 -49 35 -56 9
-8 14 -16 12 -20 -3 -4 6 -25 19 -46 13 -22 46 -80 73 -130 51 -92 243 -416
304 -515 47 -75 421 -705 670 -1127 42 -73 90 -152 105 -175 15 -24 37 -60 48
-80 49 -90 158 -268 171 -279 8 -6 14 -17 14 -23 0 -6 34 -67 75 -135 41 -68
75 -126 75 -128 0 -2 80 -137 178 -299 97 -162 182 -302 187 -312 6 -9 25 -44
44 -77 90 -158 189 -313 218 -344 18 -19 33 -43 33 -54 0 -20 77 -159 91 -165
4 -2 27 -42 50 -89 26 -50 64 -106 92 -134 26 -27 47 -53 47 -58 0 -14 100
-91 118 -91 8 0 43 -15 76 -33 34 -19 86 -41 116 -50 30 -9 79 -23 109 -31 84
-25 183 -20 302 13 57 16 124 33 149 36 35 6 53 16 81 47 21 22 53 43 73 49
20 5 44 21 53 36 10 14 41 50 69 79 43 46 88 115 164 252 9 15 28 45 43 67 15
22 27 45 27 51 0 6 21 42 46 80 25 38 50 78 55 89 9 21 11 24 72 118 20 32 37
61 37 64 0 2 16 29 36 59 52 78 45 95 -64 166 -264 171 -648 571 -957 998 -11
15 -47 63 -79 106 -82 108 -310 447 -460 682 -28 42 -64 100 -82 127 -54 84
-178 286 -221 360 -22 39 -67 115 -100 170 -55 92 -114 195 -317 554 -42 74
-76 138 -76 142 0 13 -80 129 -89 129 -5 0 -11 18 -14 40 -3 25 -17 53 -36 75
-17 20 -31 42 -31 49 0 7 -9 21 -20 31 -11 10 -20 25 -20 33 0 22 -23 82 -31
82 -3 0 -17 24 -29 53 -12 28 -34 67 -48 86 -14 19 -27 44 -28 55 -2 12 -6 35
-9 52 -7 30 -5 32 39 43 25 6 81 14 123 18 49 4 95 15 123 28 25 13 62 26 83
29 20 4 37 11 37 16 0 5 23 22 51 37 104 57 114 63 124 76 6 7 30 27 55 45 26
19 53 50 65 75 11 23 30 46 42 53 42 20 63 47 69 85 4 21 12 40 19 42 14 6 63
130 99 253 26 91 26 91 26 456 0 371 -3 411 -39 451 -16 19 -22 19 -109 1 -18
-3 -38 -2 -45 4 -20 16 -278 18 -1347 12z"/>
<path d="M6175 8006 c-12 -27 -14 -109 -15 -416 l0 -382 56 -167 c31 -91 65
-177 75 -190 11 -13 19 -32 19 -43 0 -11 23 -42 50 -70 28 -28 50 -53 50 -57
0 -17 170 -149 233 -181 37 -19 67 -40 67 -47 0 -7 12 -15 28 -19 51 -11 97
-27 118 -40 11 -8 49 -16 85 -19 89 -8 170 -26 176 -41 2 -6 -6 -29 -18 -50
-57 -104 -74 -131 -89 -149 -9 -11 -23 -36 -30 -55 -7 -19 -20 -43 -28 -52 -8
-10 -16 -28 -17 -42 -4 -29 -20 -61 -55 -106 -15 -19 -35 -52 -44 -74 -9 -21
-31 -55 -49 -75 -18 -20 -43 -54 -56 -76 -13 -22 -35 -52 -48 -66 -13 -14 -66
-93 -117 -175 -220 -350 -462 -739 -656 -1054 -45 -74 -96 -156 -111 -181 -16
-25 -29 -48 -29 -51 0 -13 157 -291 207 -368 185 -281 277 -397 491 -613 51
-52 172 -156 286 -244 54 -43 96 -44 128 -3 58 74 209 317 230 370 5 14 20 39
33 55 13 17 67 105 120 196 54 90 123 205 153 254 30 50 72 119 92 155 20 36
76 130 125 210 48 80 97 161 108 180 42 75 240 406 258 432 11 15 19 30 19 33
0 3 17 34 38 68 108 173 315 530 350 602 14 28 35 64 47 80 29 38 100 173 114
218 7 19 21 43 31 52 11 10 20 24 20 30 0 7 11 20 25 29 14 9 25 26 25 37 0
12 13 33 28 47 30 29 80 108 101 159 7 18 20 38 28 44 8 7 21 28 29 48 8 19
21 42 30 50 21 23 59 83 83 133 25 50 38 72 68 115 13 17 26 39 30 49 5 11 28
52 53 92 25 40 50 81 55 90 6 9 18 28 26 42 46 70 118 231 144 317 3 13 10 69
15 125 9 116 -1 195 -31 247 -11 18 -24 64 -28 101 -8 63 -13 74 -66 137 -102
123 -178 203 -195 203 -9 0 -21 -5 -28 -12 -15 -15 -23 -7 -31 33 -6 30 -11
34 -71 49 -36 10 -83 25 -104 34 -67 30 -286 35 -1400 36 -788 0 -1069 -3
-1098 -12 -31 -9 -44 -9 -59 0 -34 22 -59 14 -74 -22z"/>
<path d="M10470 7935 c0 -32 662 -3740 669 -3748 4 -4 211 -6 461 -5 l454 3
333 1870 c182 1029 332 1876 333 1883 0 9 -69 12 -315 12 -244 0 -317 -3 -320
-12 -3 -7 -104 -654 -225 -1438 -121 -784 -223 -1436 -227 -1450 l-6 -25 -9
30 c-5 17 -108 669 -228 1450 -121 781 -222 1426 -225 1433 -3 9 -82 12 -350
12 -299 0 -345 -2 -345 -15z"/>
<path d="M13310 6065 l0 -1885 345 0 345 0 0 1885 0 1885 -345 0 -345 0 0
-1885z"/>
<path d="M14600 7935 c0 -32 662 -3740 669 -3748 4 -4 211 -6 461 -5 l454 3
333 1870 c182 1029 332 1876 333 1883 0 9 -69 12 -315 12 -244 0 -317 -3 -320
-12 -3 -7 -104 -654 -225 -1438 -121 -784 -223 -1436 -227 -1450 l-6 -25 -9
30 c-5 17 -108 669 -228 1450 -121 781 -222 1426 -225 1433 -3 9 -82 12 -350
12 -299 0 -345 -2 -345 -15z"/>
<path d="M17437 6078 c-197 -1030 -357 -1879 -357 -1885 0 -10 71 -13 319 -13
l319 0 10 58 c5 31 34 198 63 370 l53 312 395 -2 395 -3 63 -365 c34 -201 62
-366 63 -367 0 -2 156 -3 346 -3 l346 0 -7 38 c-3 20 -165 867 -359 1882
l-352 1845 -470 3 -470 2 -357 -1872z m958 287 c81 -489 149 -900 152 -912 l5
-23 -311 0 c-229 0 -311 3 -311 12 0 15 289 1795 296 1828 6 24 7 24 15 5 4
-11 74 -420 154 -910z"/>
<path d="M8926 5296 c-58 -95 -671 -1095 -1286 -2096 -238 -388 -543 -885
-678 -1105 -134 -220 -254 -413 -264 -428 -11 -16 -18 -30 -16 -33 7 -7 221
86 346 151 558 286 1050 736 1383 1266 289 460 462 928 546 1479 21 140 26
211 30 465 2 165 0 318 -4 341 l-8 41 -49 -81z"/>
<path d="M1976 5023 c9 -339 42 -593 114 -875 134 -526 370 -1001 706 -1423
113 -142 408 -436 549 -549 61 -48 173 -130 250 -181 135 -90 355 -218 362
-211 2 2 -220 390 -493 862 -273 473 -598 1035 -722 1249 -124 215 -340 588
-480 830 -140 242 -259 450 -265 462 -6 13 -14 23 -18 23 -5 0 -6 -84 -3 -187z"/>
<path d="M17335 3327 c-155 -41 -229 -135 -229 -292 -1 -144 57 -229 259 -379
131 -99 188 -159 205 -221 17 -60 8 -122 -23 -153 -30 -29 -98 -40 -151 -22
-47 15 -66 52 -66 130 l0 60 -116 0 -117 0 5 -84 c11 -202 118 -291 353 -291
142 0 204 18 273 80 65 59 92 126 92 230 0 153 -53 233 -254 385 -142 107
-180 144 -203 197 -15 38 -17 116 -3 144 30 55 148 65 198 16 20 -21 27 -38
30 -87 l4 -60 116 0 115 0 -5 63 c-8 93 -27 144 -75 197 -60 67 -126 92 -258
96 -61 2 -119 -2 -150 -9z"/>
<path d="M18965 3327 c-155 -41 -229 -135 -229 -292 -1 -144 57 -229 259 -379
131 -99 188 -159 205 -221 17 -60 8 -122 -23 -153 -30 -29 -98 -40 -151 -22
-47 15 -66 52 -66 130 l0 60 -116 0 -117 0 5 -84 c11 -202 118 -291 353 -291
142 0 204 18 273 80 65 59 92 126 92 230 0 153 -53 233 -254 385 -142 107
-180 144 -203 197 -15 38 -17 116 -3 144 30 55 148 65 198 16 20 -21 27 -38
30 -87 l4 -60 116 0 115 0 -5 63 c-8 93 -27 144 -75 197 -60 67 -126 92 -258
96 -61 2 -119 -2 -150 -9z"/>
<path d="M10740 2705 l0 -625 330 0 330 0 0 90 0 90 -210 0 -210 0 0 190 0
190 170 0 170 0 0 90 0 90 -170 0 -170 0 0 165 0 165 210 0 210 0 0 90 0 90
-330 0 -330 0 0 -625z"/>
<path d="M11540 2705 l0 -625 110 0 110 0 1 448 0 447 69 -210 c38 -115 103
-317 145 -447 l77 -238 124 0 124 0 0 625 0 625 -105 0 -105 0 -1 -377 c-1
-320 -3 -373 -14 -348 -7 17 -61 186 -121 378 l-108 347 -153 0 -153 0 0 -625z"/>
<path d="M12420 3240 l0 -90 125 0 125 0 0 -535 0 -535 120 0 120 0 0 535 0
535 130 0 130 0 0 90 0 90 -375 0 -375 0 0 -90z"/>
<path d="M13290 2705 l0 -625 330 0 330 0 0 90 0 90 -210 0 -210 0 0 190 0
190 170 0 170 0 0 90 0 90 -170 0 -170 0 0 165 0 165 210 0 210 0 0 90 0 90
-330 0 -330 0 0 -625z"/>
<path d="M14090 2706 l0 -626 120 0 120 0 0 271 0 272 83 -5 c146 -8 157 -28
157 -292 0 -107 5 -196 11 -215 l11 -31 124 0 125 0 -13 23 c-8 14 -14 97 -18
247 -5 203 -8 229 -27 265 -26 48 -58 80 -98 95 l-30 12 30 15 c88 45 118 104
123 244 5 142 -13 207 -74 266 -70 68 -109 76 -396 81 l-248 4 0 -626z m420
431 c45 -22 62 -71 58 -172 -3 -55 -10 -99 -18 -113 -23 -35 -71 -52 -149 -52
l-71 0 0 175 0 175 78 0 c42 0 88 -6 102 -13z"/>
<path d="M14980 2706 l0 -626 120 0 120 0 0 254 0 254 123 4 c186 7 271 48
324 155 27 56 28 63 28 213 0 150 -1 157 -28 213 -32 64 -71 98 -149 130 -48
19 -76 22 -295 25 l-243 4 0 -626z m430 429 c37 -19 50 -64 50 -175 0 -164
-22 -190 -160 -190 l-80 0 0 190 0 190 80 0 c53 0 91 -5 110 -15z"/>
<path d="M15830 2706 l0 -626 120 0 120 0 0 271 0 272 83 -5 c146 -8 157 -28
157 -292 0 -107 5 -196 11 -215 l11 -31 124 0 125 0 -13 23 c-8 14 -14 97 -18
247 -5 203 -8 229 -27 265 -26 48 -58 80 -98 95 l-30 12 30 15 c88 45 118 104
123 244 5 142 -13 207 -74 266 -70 68 -109 76 -396 81 l-248 4 0 -626z m420
431 c45 -22 62 -71 58 -172 -3 -55 -10 -99 -18 -113 -23 -35 -71 -52 -149 -52
l-71 0 0 175 0 175 78 0 c42 0 88 -6 102 -13z"/>
<path d="M16720 2705 l0 -625 120 0 120 0 0 625 0 625 -120 0 -120 0 0 -625z"/>
<path d="M17960 2705 l0 -625 330 0 330 0 0 90 0 90 -210 0 -210 0 0 190 0
190 170 0 170 0 0 90 0 90 -170 0 -170 0 0 165 0 165 210 0 210 0 0 90 0 90
-330 0 -330 0 0 -625z"/>
</g>
</svg>
